<svg width="64" height="64" viewBox="0 0 64 64" fill="none" xmlns="http://www.w3.org/2000/svg">
<circle cx="32" cy="32" r="32" fill="#D9D9D9"/>
<path fill-rule="evenodd" clip-rule="evenodd" d="M9.15244 9.60002C12.1281 6.55633 15.6828 4.13894 19.607 2.49023C23.5312 0.841516 27.7457 -0.00517564 32.0021 2.38021e-05C46.334 2.38021e-05 58.4548 9.41762 62.5345 22.4H41.6015C40.7528 22.4 39.939 22.7372 39.3389 23.3373C38.7388 23.9374 38.4017 24.7513 38.4017 25.6C38.4017 26.4487 38.7388 27.2626 39.3389 27.8627C39.939 28.4629 40.7528 28.8 41.6015 28.8H63.84C63.9467 29.856 64 30.9227 64 32C64 49.6736 49.6745 64 32.0021 64C27.7457 64.0052 23.5312 63.1585 19.607 61.5098C15.6828 59.8611 12.1281 57.4437 9.15244 54.4H28.8023C29.651 54.4 30.4648 54.0628 31.0649 53.4627C31.665 52.8626 32.0021 52.0487 32.0021 51.2C32.0021 50.3513 31.665 49.5374 31.0649 48.9372C30.4648 48.3371 29.651 48 28.8023 48H4.28556C3.11602 45.9759 2.17178 43.8298 1.46975 41.6H35.2019C36.0505 41.6 36.8644 41.2629 37.4645 40.6627C38.0646 40.0626 38.4017 39.2487 38.4017 38.4C38.4017 37.5513 38.0646 36.7374 37.4645 36.1373C36.8644 35.5371 36.0505 35.2 35.2019 35.2H0.164232C-0.5159 28.5254 0.92748 21.8063 4.28876 16H32.0021C32.8508 16 33.6646 15.6629 34.2647 15.0628C34.8648 14.4626 35.2019 13.6487 35.2019 12.8C35.2019 11.9513 34.8648 11.1374 34.2647 10.5373C33.6646 9.93716 32.8508 9.60002 32.0021 9.60002H9.15244ZM25.6025 22.4C24.7539 22.4 23.94 22.7372 23.34 23.3373C22.7399 23.9374 22.4028 24.7513 22.4028 25.6C22.4028 26.4487 22.7399 27.2626 23.34 27.8627C23.94 28.4629 24.7539 28.8 25.6025 28.8H32.0021C32.8508 28.8 33.6646 28.4629 34.2647 27.8627C34.8648 27.2626 35.2019 26.4487 35.2019 25.6C35.2019 24.7513 34.8648 23.9374 34.2647 23.3373C33.6646 22.7372 32.8508 22.4 32.0021 22.4H25.6025ZM18.2686 27.8656C17.6686 28.4655 16.8549 28.8025 16.0064 28.8025C15.1579 28.8025 14.3442 28.4655 13.7441 27.8656C13.1437 27.2656 12.803 26.4516 12.8027 25.6027C12.8026 25.1824 12.8852 24.7662 13.0459 24.3778C13.2066 23.9894 13.4422 23.6365 13.7393 23.3392C14.0364 23.0419 14.3891 22.806 14.7774 22.645C15.1656 22.484 15.5818 22.4011 16.0021 22.401C16.8509 22.4007 17.665 22.7376 18.2654 23.3376C18.5629 23.6348 18.799 23.9877 18.96 24.3762C19.121 24.7647 19.2039 25.1811 19.2039 25.6016C19.2039 26.0221 19.121 26.4385 18.96 26.827C18.799 27.2155 18.5629 27.5684 18.2654 27.8656H18.2686ZM42.5422 40.6656C42.8374 40.9712 43.1905 41.215 43.5809 41.3827C43.9712 41.5504 44.3911 41.6387 44.816 41.6424C45.2409 41.6461 45.6622 41.5651 46.0554 41.4042C46.4487 41.2433 46.8059 41.0057 47.1064 40.7053C47.4068 40.4048 47.6444 40.0475 47.8053 39.6543C47.9662 39.261 48.0471 38.8396 48.0435 38.4147C48.0398 37.9898 47.9515 37.5699 47.7838 37.1795C47.6161 36.7891 47.3723 36.436 47.0667 36.1408C46.4667 35.5403 45.6528 35.1997 44.804 35.1994C43.9552 35.1991 43.141 35.536 42.5406 36.136C41.9402 36.736 41.6027 37.55 41.6024 38.3989C41.6021 39.2477 41.939 40.0619 42.539 40.6624L42.5422 40.6656Z" fill="#C0C0C0"/>
</svg>
