<svg width="51" height="48" viewBox="0 0 51 48" fill="none" xmlns="http://www.w3.org/2000/svg">
<ellipse cx="25.5" cy="23.918" rx="23.5" ry="22.5" fill="#758FB0"/>
<path d="M25.5 0.0122674C18.9497 -0.193991 12.5853 2.20768 7.80424 6.68991C3.02319 11.1721 0.216331 17.3685 0 23.9185C0.216331 30.4685 3.02319 36.6649 7.80424 41.1471C12.5853 45.6294 18.9497 48.031 25.5 47.8248C32.0503 48.031 38.4147 45.6294 43.1958 41.1471C47.9768 36.6649 50.7837 30.4685 51 23.9185C50.7837 17.3685 47.9768 11.1721 43.1958 6.68991C38.4147 2.20768 32.0503 -0.193991 25.5 0.0122674ZM46.8881 21.6873L42.9675 20.731C42.1706 20.5079 42.1069 20.4441 42.0431 20.3485C41.565 19.711 41.0231 18.8504 40.5131 18.0216C40.5131 17.7348 40.0988 17.2885 40.0031 17.0335C39.9075 16.7785 41.1188 15.121 41.6287 14.356C42.1775 13.7833 42.8119 13.2994 43.5094 12.9216C45.359 15.5106 46.5215 18.5266 46.8881 21.6873ZM25.5 3.99664L25.2131 4.53852C25.1861 4.43398 25.1861 4.3243 25.2131 4.21977C25.2131 4.41102 24.735 4.69789 24.4163 5.01664L23.46 5.94102C23.0239 6.39568 22.7598 6.98811 22.7133 7.6164C22.6668 8.24469 22.8406 8.86956 23.205 9.38352H22.8225C22.3192 9.39806 21.8256 9.526 21.3785 9.75779C20.9315 9.98959 20.5425 10.3193 20.2406 10.7223C19.8882 11.208 19.6482 11.7659 19.5379 12.3558C19.4277 12.9457 19.45 13.5527 19.6031 14.1329V14.356C19.1382 14.4389 18.6801 14.5561 18.2325 14.7066L17.4675 14.9616L15.4275 15.631C14.8197 15.8091 14.2656 16.1353 13.8149 16.5803C13.3643 17.0254 13.0312 17.5754 12.8456 18.181C12.6974 18.6892 12.678 19.2263 12.7893 19.7439C12.9006 20.2614 13.1391 20.7431 13.4831 21.1454C14.7608 22.5241 16.2447 23.6962 17.8819 24.6198C19.4865 25.6853 21.3022 26.392 23.205 26.6916H28.56C29.2048 26.6608 29.847 26.7938 30.4266 27.078C31.0063 27.3622 31.5045 27.7886 31.875 28.3173C32.0484 28.4961 32.1764 28.7139 32.2485 28.9523C32.3206 29.1907 32.3346 29.4429 32.2894 29.6879C32.2221 30.0928 32.0581 30.4755 31.8112 30.8035C30.223 32.099 29.1492 33.9188 28.7831 35.9354C28.3712 37.4339 27.86 38.9034 27.2531 40.3341C26.8706 41.3223 26.52 42.2785 26.265 43.0435C25.1957 43.1215 24.1208 43.0355 23.0775 42.7885C23.3315 40.4202 22.7692 38.0362 21.4837 36.031C20.4118 34.7644 19.8144 33.164 19.7944 31.5048C20.0004 29.9308 19.643 28.3347 18.7855 26.9988C17.928 25.663 16.6256 24.6735 15.1087 24.2054C11.5398 21.988 8.40689 19.136 5.865 15.7904C7.70703 12.1847 10.5236 9.16806 13.9945 7.08324C17.4655 4.99842 21.4516 3.92904 25.5 3.99664ZM3.98438 23.9185C3.98284 22.6761 4.11104 21.4368 4.36688 20.221C6.98405 23.3524 10.1621 25.9683 13.7381 27.9348C15.6506 28.636 15.9375 29.3691 15.9375 31.5048C15.9446 34.1691 16.9186 36.7402 18.6788 38.7404C19.1488 40.123 19.3013 41.5938 19.125 43.0435C14.865 41.9356 11.0823 39.4691 8.3501 36.018C5.61794 32.5668 4.08527 28.3191 3.98438 23.9185ZM30.5044 43.2985C30.5044 42.8204 30.8869 42.2785 31.0781 41.7685C31.8055 40.1211 32.392 38.415 32.8312 36.6685C33.0809 35.5874 33.6872 34.6218 34.5525 33.9273C35.6707 32.8326 36.3218 31.3476 36.3694 29.7835C36.4103 29.0421 36.2985 28.3002 36.0408 27.6038C35.7831 26.9075 35.385 26.2715 34.8713 25.7354C34.1046 24.7948 33.1293 24.0458 32.0227 23.5478C30.9161 23.0499 29.7087 22.8167 28.4962 22.8666H23.4281C21.0491 22.2182 18.862 21.0044 17.0531 19.3285L18.5513 18.8185L19.4119 18.5635C19.7913 18.3913 20.2072 18.3147 20.6231 18.3404L20.91 18.8185C21.1485 19.2659 21.5451 19.6084 22.0224 19.7793C22.4998 19.9502 23.0236 19.9372 23.4919 19.7429C23.9554 19.5266 24.3226 19.1465 24.5227 18.6757C24.7228 18.2049 24.7416 17.6767 24.5756 17.1929V16.6191C24.225 15.6629 23.8106 14.3241 23.5556 13.4316C24.3824 13.4663 25.2029 13.2737 25.9278 12.8747C26.6528 12.4757 27.2545 11.8856 27.6675 11.1685C27.8654 10.6344 27.9165 10.057 27.8156 9.49647C27.7147 8.93589 27.4655 8.4126 27.0938 7.98102C27.4692 7.64467 27.8206 7.28254 28.1456 6.89727C28.4382 6.54717 28.6522 6.13835 28.7732 5.69843C28.8942 5.2585 28.9193 4.79774 28.8469 4.34727C33.3022 5.00312 37.4506 7.00504 40.7362 10.0848C39.7716 10.6739 38.919 11.4293 38.2181 12.316C37.4575 13.4249 36.7759 14.5859 36.1781 15.7904C35.921 16.5334 35.8563 17.3294 35.9901 18.1042C36.1238 18.879 36.4517 19.6073 36.9431 20.221C37.5169 21.2091 38.1544 22.1654 38.7281 22.9623C39.5189 23.959 40.6577 24.6195 41.9156 24.811C42.6169 25.0023 45.1031 25.5123 46.8563 25.8629C46.2926 30.1127 44.4126 34.0793 41.48 37.2063C38.5473 40.3333 34.7093 42.4637 30.5044 43.2985Z" fill="#374D69"/>
</svg>
