<svg width="80" height="80" viewBox="0 0 80 80" fill="none" xmlns="http://www.w3.org/2000/svg">
<ellipse cx="39.375" cy="40" rx="37.1116" ry="37.2659" transform="rotate(0.362653 39.375 40)" fill="#CDCDCD"/>
<path d="M12.0486 14.9922C5.88955 21.8607 2.48848 30.7648 2.50003 39.9907C2.50003 42.853 2.82082 45.6446 3.42906 48.3236M12.0486 14.9922C16.6362 9.86684 22.5447 6.10179 29.1279 4.10882C35.7111 2.11584 42.7156 1.97169 49.3752 3.69212C56.0349 5.41256 62.0932 8.93133 66.8878 13.8636C71.6823 18.7959 75.0283 24.9517 76.5599 31.6579M12.0486 14.9922H39.9945M3.42906 48.3236H44.1605M3.42906 48.3236C4.84362 54.5195 7.80966 60.2543 12.0486 64.9892M76.5599 31.6579C78.4099 39.7639 77.5136 48.2551 74.0118 55.7961C70.5101 63.3371 64.6016 69.5004 57.2152 73.3167C49.8289 77.133 41.3838 78.386 33.2078 76.8785C25.0318 75.3711 17.5886 71.1888 12.0486 64.9892M76.5599 31.6579H52.4926M12.0486 64.9892H35.8284M39.9945 31.6579H31.6624" stroke="#C0C0C0" stroke-width="5" stroke-linecap="round" stroke-linejoin="round"/>
</svg>
