<svg width="71" height="68" viewBox="0 0 71 68" fill="none" xmlns="http://www.w3.org/2000/svg">
<circle cx="35.4395" cy="34" r="21" fill="#D9D9D9"/>
<path d="M14.886 39.424C12.7127 31.254 15.5435 22.2335 22.7212 16.8955C25.8356 14.5783 29.5276 13.1617 33.3961 12.7995C37.2646 12.4373 41.1617 13.1435 44.6642 14.8412C42.9748 16.1352 41.4478 17.6981 40.1229 19.2301C36.2795 23.6822 33.1302 29.13 31.8038 31.4224L31.445 32.0434C30.1083 34.3546 27.3158 39.1696 24.0471 42.9529C22.3167 44.957 20.7327 46.3364 19.4454 46.9994C19.252 47.0999 19.0525 47.1883 18.8482 47.2642C17.8666 46.0331 17.0216 44.699 16.3283 43.2855C15.8528 44.0464 15.46 44.9362 15.2583 45.8455C14.8669 47.5975 15.258 48.8562 16.3949 49.5602C17.5937 50.3001 18.943 50.2662 20.6264 49.3972C22.3655 48.5023 24.2182 46.8168 26.0318 44.7198C29.5031 40.7017 32.4231 35.6546 33.7427 33.3739L34.0485 32.8477C35.3613 30.5786 38.4391 25.2571 42.1531 20.9632C44.0769 18.7356 46.284 16.6515 48.6191 15.4484C51.0091 14.2155 53.7481 13.8166 56.3429 15.422C59.2842 17.2412 59.6331 20.4128 59.0516 22.9681C58.5743 25.0674 57.4094 27.1556 55.9944 28.5665C58.1724 36.7397 55.3412 45.7627 48.1607 51.1028C45.0465 53.42 41.3548 54.8368 37.4865 55.1992C33.6182 55.5617 29.7212 54.8559 26.2187 53.1585C27.9071 51.8631 29.4365 50.3006 30.7603 48.7672C34.6038 44.3151 37.7545 38.8662 39.0794 36.5749L39.4397 35.9528C40.7749 33.6427 43.5675 28.8277 46.8361 25.0443C48.5652 23.0413 50.1506 21.6608 51.4379 20.9979C51.6705 20.8795 51.8691 20.7916 52.0337 20.7341C52.1873 20.9268 52.3383 21.1229 52.4867 21.3224C53.2876 22.4033 53.9729 23.5265 54.5427 24.6921C55.0064 23.9422 55.391 23.0651 55.5949 22.1675C56.0012 20.3911 55.6111 19.1339 54.488 18.4395C53.2895 17.6972 51.94 17.7335 50.2502 18.6028C48.5093 19.5013 46.6537 21.1889 44.8358 23.289C41.3472 27.3223 38.4136 32.3927 37.1004 34.6643L36.7946 35.1905C35.4782 37.4667 32.4126 42.7659 28.716 47.0446C26.7964 49.2691 24.5907 51.3521 22.2585 52.553C19.8713 53.7838 17.1327 54.1802 14.539 52.5763C11.6104 50.7653 11.2274 47.6191 11.7965 45.0619C12.2699 42.9456 13.4459 40.8425 14.886 39.424Z" fill="#C0C0C0"/>
</svg>
