<svg width="37" height="37" viewBox="0 0 37 37" fill="none" xmlns="http://www.w3.org/2000/svg">
<ellipse cx="18.334" cy="18.334" rx="17" ry="16" fill="#D9D9D9"/>
<path d="M29.15 28.215C28.6733 26.7483 27.2983 25.6667 25.6667 25.6667H23.8333V20.1667C23.8333 19.6804 23.6402 19.2141 23.2964 18.8703C22.9525 18.5265 22.4862 18.3333 22 18.3333H11V14.6667H14.6667C15.1529 14.6667 15.6192 14.4735 15.963 14.1297C16.3068 13.7859 16.5 13.3196 16.5 12.8333V9.16667H20.1667C21.1391 9.16667 22.0718 8.78036 22.7594 8.09272C23.447 7.40509 23.8333 6.47246 23.8333 5.5V4.74833C26.0269 5.63267 27.9735 7.03537 29.5065 8.83636C31.0394 10.6374 32.1132 12.783 32.6358 15.0896C33.1584 17.3963 33.1143 19.7952 32.5072 22.081C31.9001 24.3669 30.7482 26.4716 29.15 28.215ZM16.5 32.8717C9.25833 31.9733 3.66667 25.8133 3.66667 18.3333C3.66667 17.1967 3.81333 16.0967 4.05167 15.0517L12.8333 23.8333V25.6667C12.8333 26.6391 13.2196 27.5718 13.9073 28.2594C14.5949 28.947 15.5275 29.3333 16.5 29.3333M18.3333 0C15.9258 0 13.5418 0.474206 11.3175 1.39554C9.09317 2.31688 7.07212 3.6673 5.36971 5.36971C1.93154 8.80788 0 13.471 0 18.3333C0 23.1956 1.93154 27.8588 5.36971 31.297C7.07212 32.9994 9.09317 34.3498 11.3175 35.2711C13.5418 36.1925 15.9258 36.6667 18.3333 36.6667C23.1956 36.6667 27.8588 34.7351 31.297 31.297C34.7351 27.8588 36.6667 23.1956 36.6667 18.3333C36.6667 15.9258 36.1925 13.5418 35.2711 11.3175C34.3498 9.09317 32.9994 7.07212 31.297 5.36971C29.5946 3.6673 27.5735 2.31688 25.3492 1.39554C23.1249 0.474206 20.7409 0 18.3333 0Z" fill="#CDCDCD"/>
</svg>
