<svg width="66" height="66" viewBox="0 0 66 66" fill="none" xmlns="http://www.w3.org/2000/svg">
<circle cx="33.0002" cy="33" r="33" fill="#D9D9D9"/>
<path d="M63.3799 45.915C62.5947 46.2376 61.8126 46.5676 61.0336 46.9049L61.0006 46.9214C59.3935 47.6144 57.5521 48.4064 55.5424 49.1456C51.4967 50.6438 46.6556 51.9836 41.28 51.9836C35.2972 51.9836 30.7102 50.3798 27.0341 48.6176C25.6151 47.9378 24.2984 47.2151 23.1401 46.5815L22.2425 46.0866C20.8235 45.321 19.7213 44.7699 18.7379 44.4597C14.8845 43.2761 10.9109 42.5268 6.89108 42.2256C5.29602 42.1002 3.69609 42.0473 2.09623 42.0672L1.84213 42.0771H1.77283L1.27124 42.1035C3.15543 48.6578 7.02306 54.4679 12.3427 58.7353C17.6624 63.0028 24.173 65.5182 30.98 65.9359C37.787 66.3536 44.5563 64.6532 50.3578 61.0682C56.1593 57.4833 60.7084 52.1897 63.3799 45.915ZM4.08281 17.0964L5.0629 18.093L5.0728 18.1062L5.1355 18.1656L5.41929 18.4329C5.67999 18.6705 6.07929 19.0268 6.60728 19.4558C7.66327 20.3138 9.23075 21.4688 11.2404 22.6238C15.2631 24.947 20.972 27.2306 27.8392 27.2306C32.3734 27.2306 35.845 25.9304 38.7885 24.3926C39.96 23.7788 41.016 23.1485 42.0654 22.5215L42.9729 21.9836C44.2665 21.218 45.6459 20.4392 47.045 19.9574C50.6676 18.7098 54.4228 17.887 58.2352 17.5056C59.5018 17.3816 60.7741 17.3243 62.0467 17.334C59.2189 12.0938 55.0259 7.71638 49.9123 4.66573C44.7987 1.61509 38.9549 0.00490587 33.0004 0.00585993C27.0917 0.00477395 21.2911 1.59016 16.2044 4.59646C11.1176 7.60275 6.93139 11.9197 4.08281 17.0964Z" fill="#C0C0C0"/>
<path opacity="0.5" d="M65.2575 39.995C65.7525 37.7379 66 35.4081 66 33.0057C66.003 29.4083 65.4178 25.8346 64.2675 22.426L62.5284 22.3006H62.4921L62.3238 22.2907C61.1166 22.2718 59.9092 22.3192 58.7071 22.4326C55.2808 22.7756 51.9062 23.5176 48.6521 24.6436C47.7842 24.9406 46.7942 25.4752 45.4907 26.2441L44.6723 26.7325C43.6097 27.3694 42.3954 28.0954 41.082 28.7785C37.683 30.5571 33.4162 32.1807 27.8425 32.1807C19.8632 32.1807 13.2996 29.5309 8.76872 26.914C6.91405 25.8528 5.1483 24.6433 3.48878 23.2972C2.94485 22.8595 2.41653 22.4027 1.9048 21.9277C0.175409 26.8211 -0.387327 32.0507 0.261418 37.2L1.5319 37.134H1.5682L1.6573 37.1307C2.15205 37.1117 2.6472 37.1051 3.14229 37.1109C4.14217 37.1175 5.56116 37.1571 7.27714 37.2924C10.6992 37.5564 15.3522 38.2065 20.2229 39.7409C21.7079 40.2062 23.1896 40.9718 24.6019 41.7374L25.5886 42.2753C26.7304 42.9023 27.8887 43.5392 29.1757 44.1563C32.4097 45.7073 36.2508 47.0306 41.28 47.0306C45.8438 47.0306 50.0645 45.8954 53.8264 44.5028C55.7107 43.8098 57.4531 43.0607 59.0767 42.3578L59.1361 42.3347C60.7036 41.6615 62.2281 41.0048 63.5679 40.5593L65.2575 39.995Z" fill="#C0C0C0"/>
</svg>
