<svg width="38" height="39" viewBox="0 0 38 39" fill="none" xmlns="http://www.w3.org/2000/svg">
<ellipse cx="19.7471" cy="17.7828" rx="13.6676" ry="13.7474" transform="rotate(21.3722 19.7471 17.7828)" fill="#6FA0D5"/>
<path d="M36.8036 31.9598C37.0202 31.6422 37.1025 31.2516 37.0325 30.8734C36.9624 30.4953 36.7457 30.1601 36.4297 29.9411L2.51095 6.60849C2.1933 6.39127 1.80267 6.30866 1.42441 6.37872C1.04615 6.44879 0.711013 6.66583 0.492237 6.98241C0.276016 7.29994 0.193967 7.69013 0.263957 8.06799C0.333946 8.44585 0.550304 8.78077 0.865911 8.99979L6.79499 13.0412C6.46498 13.9488 6.233 14.8802 6.09908 15.8355L19.4973 25.0537C19.7244 25.2222 19.8774 25.4723 19.9239 25.7514C19.9705 26.0305 19.9069 26.3168 19.7466 26.5498C19.5864 26.7829 19.3419 26.9446 19.0648 27.0009C18.7877 27.0571 18.4996 27.0035 18.2611 26.8514L5.96646 18.4811C5.99628 19.0903 6.06889 19.694 6.18427 20.292C8.13718 30.7606 20.6818 35.1911 28.7652 28.2662L28.8284 28.2116L34.7786 32.292C35.0915 32.5156 35.48 32.6064 35.8595 32.5444C36.2389 32.4824 36.5782 32.2714 36.8036 31.9598ZM22.0087 8.01478C22.1298 8.09474 22.2337 8.19803 22.3144 8.31862C22.395 8.43922 22.4509 8.57469 22.4787 8.71712C22.5064 8.85955 22.5055 9.00608 22.4761 9.14815C22.4466 9.29021 22.3891 9.42497 22.3069 9.54454C22.2248 9.66411 22.1197 9.76609 21.9977 9.84452C21.8757 9.92295 21.7393 9.97626 21.5965 10.0013C21.4536 10.0264 21.3072 10.0227 21.1658 9.99054C21.0244 9.95835 20.8908 9.89827 20.7729 9.81383L13.9891 5.14704C12.4228 5.89409 11.0132 6.9347 9.83544 8.2107L32.3088 23.672C36.7992 14.03 29.1763 3.13704 18.5869 4.0628C18.1594 4.10044 17.7346 4.15789 17.3126 4.23513L16.641 4.35953L22.0087 8.01478Z" fill="#4A77D1"/>
</svg>
