<svg width="602" height="589" viewBox="0 0 602 589" fill="none" xmlns="http://www.w3.org/2000/svg">
<circle cx="286.5" cy="304.5" r="53.5" fill="#D9D9D9"/>
<circle cx="285.5" cy="304.5" r="66" stroke="#E5C9D7"/>
<circle cx="285.5" cy="304.5" r="89" stroke="#83A6CE"/>
<circle cx="286.5" cy="304.5" r="133" stroke="#C48CB3"/>
<circle cx="286.5" cy="304.5" r="200" stroke="#83A6CE"/>
<circle cx="286.5" cy="304.5" r="284" stroke="#D0D0D0"/>
<circle cx="286.5" cy="304.5" r="284" stroke="#E5C9D7"/>
<circle cx="218" cy="247" r="4" fill="#C48CB3"/>
<circle cx="467" cy="85" r="4" fill="#ACCAEB"/>
<circle cx="318" cy="502" r="4" fill="#CD9DB5"/>
<circle cx="334.5" cy="347.5" r="7.5" fill="#83A6CE"/>
<circle cx="153.5" cy="297.5" r="7.5" fill="#667E98"/>
<circle cx="116.5" cy="411.5" r="7.5" fill="#E5C9D7"/>
<circle cx="6" cy="263" r="6" fill="#83A6CE"/>
<circle cx="247" cy="384" r="5" fill="#E5C9D7"/>
<circle cx="191" cy="572" r="5" fill="#B1D5FF"/>
<circle cx="451.5" cy="535.5" r="8.5" fill="#83A6CE"/>
<circle cx="332" cy="179" r="5" fill="#ACCAEB"/>
<circle cx="364.5" cy="412.5" r="6.5" fill="#83A6CE"/>
<circle cx="244.5" cy="110.5" r="6.5" fill="#C48CB3"/>
<circle cx="167.5" cy="46.5" r="6.5" fill="#8BACCF"/>
<circle cx="464" cy="213" r="8" fill="#E2B1D3"/>
<ellipse cx="561.348" cy="366.5" rx="37.1116" ry="37.2659" transform="rotate(0.362653 561.348 366.5)" fill="#CDCDCD"/>
<path d="M534.021 341.492C527.862 348.361 524.461 357.265 524.473 366.491C524.473 369.353 524.793 372.145 525.402 374.824M534.021 341.492C538.609 336.367 544.517 332.602 551.101 330.609C557.684 328.616 564.688 328.472 571.348 330.192C578.008 331.913 584.066 335.431 588.86 340.364C593.655 345.296 597.001 351.452 598.533 358.158M534.021 341.492H561.967M525.402 374.824H566.133M525.402 374.824C526.816 381.02 529.782 386.754 534.021 391.489M598.533 358.158C600.383 366.264 599.486 374.755 595.985 382.296C592.483 389.837 586.574 396 579.188 399.817C571.802 403.633 563.356 404.886 555.18 403.379C547.004 401.871 539.561 397.689 534.021 391.489M598.533 358.158H574.465M534.021 391.489H557.801M561.967 358.158H553.635" stroke="#C0C0C0" stroke-width="5" stroke-linecap="round" stroke-linejoin="round"/>
<ellipse cx="106.5" cy="527.5" rx="23.5" ry="22.5" fill="#CDCDCD"/>
<path d="M106.5 503.594C99.9497 503.388 93.5853 505.79 88.8042 510.272C84.0232 514.754 81.2163 520.951 81 527.501C81.2163 534.051 84.0232 540.247 88.8042 544.729C93.5853 549.211 99.9497 551.613 106.5 551.407C113.05 551.613 119.415 549.211 124.196 544.729C128.977 540.247 131.784 534.051 132 527.501C131.784 520.951 128.977 514.754 124.196 510.272C119.415 505.79 113.05 503.388 106.5 503.594ZM127.888 525.269L123.967 524.313C123.171 524.09 123.107 524.026 123.043 523.931C122.565 523.293 122.023 522.432 121.513 521.604C121.513 521.317 121.099 520.871 121.003 520.616C120.908 520.361 122.119 518.703 122.629 517.938C123.177 517.365 123.812 516.881 124.509 516.504C126.359 519.093 127.522 522.109 127.888 525.269ZM106.5 507.579L106.213 508.121C106.186 508.016 106.186 507.906 106.213 507.802C106.213 507.993 105.735 508.28 105.416 508.599L104.46 509.523C104.024 509.978 103.76 510.57 103.713 511.198C103.667 511.827 103.841 512.452 104.205 512.966H103.823C103.319 512.98 102.826 513.108 102.379 513.34C101.932 513.572 101.543 513.901 101.241 514.304C100.888 514.79 100.648 515.348 100.538 515.938C100.428 516.528 100.45 517.135 100.603 517.715V517.938C100.138 518.021 99.6801 518.138 99.2325 518.289L98.4675 518.544L96.4275 519.213C95.8197 519.391 95.2656 519.717 94.8149 520.162C94.3643 520.607 94.0312 521.157 93.8456 521.763C93.6974 522.271 93.678 522.808 93.7893 523.326C93.9006 523.843 94.1391 524.325 94.4831 524.727C95.7608 526.106 97.2447 527.278 98.8819 528.202C100.487 529.267 102.302 529.974 104.205 530.274H109.56C110.205 530.243 110.847 530.376 111.427 530.66C112.006 530.944 112.505 531.371 112.875 531.899C113.048 532.078 113.176 532.296 113.249 532.534C113.321 532.773 113.335 533.025 113.289 533.27C113.222 533.675 113.058 534.058 112.811 534.386C111.223 535.681 110.149 537.501 109.783 539.517C109.371 541.016 108.86 542.485 108.253 543.916C107.871 544.904 107.52 545.861 107.265 546.626C106.196 546.703 105.121 546.617 104.077 546.371C104.332 544.002 103.769 541.618 102.484 539.613C101.412 538.346 100.814 536.746 100.794 535.087C101 533.513 100.643 531.917 99.7855 530.581C98.928 529.245 97.6256 528.255 96.1087 527.787C92.5398 525.57 89.4069 522.718 86.865 519.372C88.707 515.767 91.5236 512.75 94.9945 510.665C98.4655 508.58 102.452 507.511 106.5 507.579ZM84.9844 527.501C84.9828 526.258 85.111 525.019 85.3669 523.803C87.9841 526.934 91.1621 529.55 94.7381 531.517C96.6506 532.218 96.9375 532.951 96.9375 535.087C96.9446 537.751 97.9186 540.322 99.6788 542.322C100.149 543.705 100.301 545.176 100.125 546.626C95.865 545.518 92.0823 543.051 89.3501 539.6C86.6179 536.149 85.0853 531.901 84.9844 527.501ZM111.504 546.881C111.504 546.402 111.887 545.861 112.078 545.351C112.806 543.703 113.392 541.997 113.831 540.251C114.081 539.169 114.687 538.204 115.553 537.509C116.671 536.415 117.322 534.93 117.369 533.366C117.41 532.624 117.298 531.882 117.041 531.186C116.783 530.49 116.385 529.854 115.871 529.317C115.105 528.377 114.129 527.628 113.023 527.13C111.916 526.632 110.709 526.399 109.496 526.449H104.428C102.049 525.8 99.862 524.586 98.0531 522.911L99.5513 522.401L100.412 522.146C100.791 521.973 101.207 521.897 101.623 521.922L101.91 522.401C102.149 522.848 102.545 523.19 103.022 523.361C103.5 523.532 104.024 523.519 104.492 523.325C104.955 523.109 105.323 522.729 105.523 522.258C105.723 521.787 105.742 521.259 105.576 520.775V520.201C105.225 519.245 104.811 517.906 104.556 517.014C105.382 517.048 106.203 516.856 106.928 516.457C107.653 516.058 108.254 515.468 108.668 514.751C108.865 514.216 108.917 513.639 108.816 513.078C108.715 512.518 108.465 511.995 108.094 511.563C108.469 511.227 108.821 510.865 109.146 510.479C109.438 510.129 109.652 509.72 109.773 509.28C109.894 508.841 109.919 508.38 109.847 507.929C114.302 508.585 118.451 510.587 121.736 513.667C120.772 514.256 119.919 515.011 119.218 515.898C118.458 517.007 117.776 518.168 117.178 519.372C116.921 520.115 116.856 520.911 116.99 521.686C117.124 522.461 117.452 523.189 117.943 523.803C118.517 524.791 119.154 525.747 119.728 526.544C120.519 527.541 121.658 528.202 122.916 528.393C123.617 528.584 126.103 529.094 127.856 529.445C127.293 533.695 125.413 537.661 122.48 540.788C119.547 543.915 115.709 546.046 111.504 546.881Z" fill="#C0C0C0"/>
<ellipse cx="19" cy="215" rx="17" ry="16" fill="#D9D9D9"/>
<path d="M29.816 224.881C29.3393 223.414 27.9643 222.333 26.3327 222.333H24.4993V216.833C24.4993 216.346 24.3062 215.88 23.9624 215.536C23.6186 215.193 23.1522 214.999 22.666 214.999H11.666V211.333H15.3327C15.8189 211.333 16.2852 211.14 16.629 210.796C16.9729 210.452 17.166 209.986 17.166 209.499V205.833H20.8327C21.8051 205.833 22.7378 205.446 23.4254 204.759C24.113 204.071 24.4993 203.138 24.4993 202.166V201.414C26.6929 202.299 28.6395 203.701 30.1725 205.502C31.7055 207.303 32.7792 209.449 33.3018 211.756C33.8244 214.062 33.7803 216.461 33.1732 218.747C32.5661 221.033 31.4142 223.138 29.816 224.881ZM17.166 229.538C9.92435 228.639 4.33268 222.479 4.33268 214.999C4.33268 213.863 4.47935 212.763 4.71768 211.718L13.4993 220.499V222.333C13.4993 223.305 13.8857 224.238 14.5733 224.925C15.2609 225.613 16.1936 225.999 17.166 225.999M18.9993 196.666C16.5918 196.666 14.2078 197.14 11.9835 198.062C9.75918 198.983 7.73813 200.333 6.03572 202.036C2.59756 205.474 0.666016 210.137 0.666016 214.999C0.666016 219.862 2.59756 224.525 6.03572 227.963C7.73813 229.665 9.75918 231.016 11.9835 231.937C14.2078 232.858 16.5918 233.333 18.9993 233.333C23.8617 233.333 28.5248 231.401 31.963 227.963C35.4011 224.525 37.3327 219.862 37.3327 214.999C37.3327 212.592 36.8585 210.208 35.9371 207.983C35.0158 205.759 33.6654 203.738 31.963 202.036C30.2606 200.333 28.2395 198.983 26.0152 198.062C23.7909 197.14 21.4069 196.666 18.9993 196.666Z" fill="#CDCDCD"/>
<circle cx="344.5" cy="21.5" r="21.5" fill="#B7A5CC"/>
<path d="M366 21.5074C365.996 33.3756 356.376 42.996 344.507 43L366 21.5074ZM344.5 0C353.231 0 360.746 5.20367 364.113 12.6788L335.679 41.1129C334.465 40.5657 333.305 39.9069 332.213 39.1451L349.858 21.5H344.5L329.297 36.7029C325.406 32.8119 323 27.4369 323 21.5C323 9.62595 332.626 0 344.5 0Z" fill="#CCC5DA"/>
<circle cx="372" cy="482" r="32" fill="#D9D9D9"/>
<path fill-rule="evenodd" clip-rule="evenodd" d="M349.152 459.6C352.128 456.556 355.683 454.139 359.607 452.49C363.531 450.842 367.746 449.995 372.002 450C386.334 450 398.455 459.418 402.534 472.4H381.601C380.753 472.4 379.939 472.737 379.339 473.337C378.739 473.937 378.402 474.751 378.402 475.6C378.402 476.449 378.739 477.263 379.339 477.863C379.939 478.463 380.753 478.8 381.601 478.8H403.84C403.947 479.856 404 480.923 404 482C404 499.674 389.675 514 372.002 514C367.746 514.005 363.531 513.158 359.607 511.51C355.683 509.861 352.128 507.444 349.152 504.4H368.802C369.651 504.4 370.465 504.063 371.065 503.463C371.665 502.863 372.002 502.049 372.002 501.2C372.002 500.351 371.665 499.537 371.065 498.937C370.465 498.337 369.651 498 368.802 498H344.286C343.116 495.976 342.172 493.83 341.47 491.6H375.202C376.051 491.6 376.864 491.263 377.465 490.663C378.065 490.063 378.402 489.249 378.402 488.4C378.402 487.551 378.065 486.737 377.465 486.137C376.864 485.537 376.051 485.2 375.202 485.2H340.164C339.484 478.525 340.927 471.806 344.289 466H372.002C372.851 466 373.665 465.663 374.265 465.063C374.865 464.463 375.202 463.649 375.202 462.8C375.202 461.951 374.865 461.137 374.265 460.537C373.665 459.937 372.851 459.6 372.002 459.6H349.152ZM365.603 472.4C364.754 472.4 363.94 472.737 363.34 473.337C362.74 473.937 362.403 474.751 362.403 475.6C362.403 476.449 362.74 477.263 363.34 477.863C363.94 478.463 364.754 478.8 365.603 478.8H372.002C372.851 478.8 373.665 478.463 374.265 477.863C374.865 477.263 375.202 476.449 375.202 475.6C375.202 474.751 374.865 473.937 374.265 473.337C373.665 472.737 372.851 472.4 372.002 472.4H365.603ZM358.269 477.866C357.669 478.466 356.855 478.803 356.006 478.803C355.158 478.803 354.344 478.466 353.744 477.866C353.144 477.266 352.803 476.452 352.803 475.603C352.803 475.182 352.885 474.766 353.046 474.378C353.207 473.989 353.442 473.637 353.739 473.339C354.036 473.042 354.389 472.806 354.777 472.645C355.166 472.484 355.582 472.401 356.002 472.401C356.851 472.401 357.665 472.738 358.265 473.338C358.563 473.635 358.799 473.988 358.96 474.376C359.121 474.765 359.204 475.181 359.204 475.602C359.204 476.022 359.121 476.439 358.96 476.827C358.799 477.215 358.563 477.568 358.265 477.866H358.269ZM382.542 490.666C382.837 490.971 383.19 491.215 383.581 491.383C383.971 491.55 384.391 491.639 384.816 491.642C385.241 491.646 385.662 491.565 386.055 491.404C386.449 491.243 386.806 491.006 387.106 490.705C387.407 490.405 387.644 490.048 387.805 489.654C387.966 489.261 388.047 488.84 388.043 488.415C388.04 487.99 387.951 487.57 387.784 487.18C387.616 486.789 387.372 486.436 387.067 486.141C386.467 485.54 385.653 485.2 384.804 485.199C383.955 485.199 383.141 485.536 382.541 486.136C381.94 486.736 381.603 487.55 381.602 488.399C381.602 489.248 381.939 490.062 382.539 490.662L382.542 490.666Z" fill="#C0C0C0"/>
<circle cx="172" cy="140" r="33" fill="#D9D9D9"/>
<path d="M202.38 152.915C201.595 153.238 200.813 153.568 200.034 153.905L200.001 153.921C198.394 154.614 196.552 155.406 194.542 156.146C190.497 157.644 185.656 158.984 180.28 158.984C174.297 158.984 169.71 157.38 166.034 155.618C164.615 154.938 163.298 154.215 162.14 153.582L161.243 153.087C159.824 152.321 158.721 151.77 157.738 151.46C153.885 150.276 149.911 149.527 145.891 149.226C144.296 149.1 142.696 149.047 141.096 149.067L140.842 149.077H140.773L140.271 149.103C142.155 155.658 146.023 161.468 151.343 165.735C156.662 170.003 163.173 172.518 169.98 172.936C176.787 173.354 183.556 171.653 189.358 168.068C195.159 164.483 199.708 159.19 202.38 152.915ZM143.083 124.096L144.063 125.093L144.073 125.106L144.135 125.166L144.419 125.433C144.68 125.67 145.079 126.027 145.607 126.456C146.663 127.314 148.231 128.469 150.24 129.624C154.263 131.947 159.972 134.231 166.839 134.231C171.373 134.231 174.845 132.93 177.789 131.393C178.96 130.779 180.016 130.149 181.065 129.522L181.973 128.984C183.266 128.218 184.646 127.439 186.045 126.957C189.668 125.71 193.423 124.887 197.235 124.506C198.502 124.382 199.774 124.324 201.047 124.334C198.219 119.094 194.026 114.716 188.912 111.666C183.799 108.615 177.955 107.005 172 107.006C166.092 107.005 160.291 108.59 155.204 111.596C150.118 114.603 145.931 118.92 143.083 124.096Z" fill="#C0C0C0"/>
<path opacity="0.5" d="M204.257 146.995C204.752 144.738 205 142.408 205 140.006C205.003 136.408 204.418 132.835 203.268 129.426L201.528 129.301H201.492L201.324 129.291C200.117 129.272 198.909 129.319 197.707 129.433C194.281 129.776 190.906 130.518 187.652 131.644C186.784 131.941 185.794 132.475 184.491 133.244L183.672 133.732C182.61 134.369 181.395 135.095 180.082 135.778C176.683 137.557 172.416 139.181 166.843 139.181C158.863 139.181 152.3 136.531 147.769 133.914C145.914 132.853 144.148 131.643 142.489 130.297C141.945 129.859 141.417 129.403 140.905 128.928C139.175 133.821 138.613 139.051 139.261 144.2L140.532 144.134H140.568L140.657 144.131C141.152 144.112 141.647 144.105 142.142 144.111C143.142 144.117 144.561 144.157 146.277 144.292C149.699 144.556 154.352 145.206 159.223 146.741C160.708 147.206 162.19 147.972 163.602 148.737L164.589 149.275C165.73 149.902 166.889 150.539 168.176 151.156C171.41 152.707 175.251 154.031 180.28 154.031C184.844 154.031 189.064 152.895 192.826 151.503C194.711 150.81 196.453 150.061 198.077 149.358L198.136 149.335C199.704 148.662 201.228 148.005 202.568 147.559L204.257 146.995Z" fill="#C0C0C0"/>
<ellipse cx="164.101" cy="355.322" rx="13.6676" ry="13.7474" transform="rotate(21.3722 164.101 355.322)" fill="#D9D9D9"/>
<path d="M181.157 369.499C181.374 369.181 181.456 368.791 181.386 368.413C181.316 368.034 181.099 367.699 180.783 367.48L146.864 344.148C146.547 343.93 146.156 343.848 145.778 343.918C145.4 343.988 145.065 344.205 144.846 344.521C144.63 344.839 144.547 345.229 144.617 345.607C144.687 345.985 144.904 346.32 145.219 346.539L151.149 350.58C150.818 351.488 150.587 352.419 150.453 353.375L163.851 362.593C164.078 362.761 164.231 363.011 164.277 363.29C164.324 363.57 164.26 363.856 164.1 364.089C163.94 364.322 163.695 364.484 163.418 364.54C163.141 364.596 162.853 364.543 162.615 364.39L150.32 356.02C150.35 356.629 150.422 357.233 150.538 357.831C152.491 368.3 165.035 372.73 173.119 365.805L173.182 365.751L179.132 369.831C179.445 370.055 179.834 370.145 180.213 370.083C180.592 370.021 180.932 369.81 181.157 369.499ZM166.362 345.554C166.483 345.634 166.587 345.737 166.668 345.858C166.749 345.978 166.804 346.114 166.832 346.256C166.86 346.399 166.859 346.545 166.83 346.687C166.8 346.829 166.743 346.964 166.66 347.084C166.578 347.203 166.473 347.305 166.351 347.384C166.229 347.462 166.093 347.515 165.95 347.54C165.807 347.565 165.661 347.562 165.519 347.53C165.378 347.497 165.244 347.437 165.126 347.353L158.343 342.686C156.776 343.433 155.367 344.474 154.189 345.75L176.662 361.211C181.153 351.569 173.53 340.676 162.94 341.602C162.513 341.64 162.088 341.697 161.666 341.774L160.995 341.899L166.362 345.554Z" fill="#CDCDCD"/>
<circle cx="416" cy="275.002" r="21" fill="#D9D9D9"/>
<path d="M395.447 280.426C393.273 272.256 396.104 263.235 403.282 257.897C406.396 255.58 410.088 254.164 413.957 253.801C417.825 253.439 421.722 254.145 425.225 255.843C423.535 257.137 422.008 258.7 420.683 260.232C416.84 264.684 413.691 270.132 412.364 272.424L412.006 273.045C410.669 275.357 407.876 280.172 404.608 283.955C402.877 285.959 401.293 287.338 400.006 288.001C399.813 288.102 399.613 288.19 399.409 288.266C398.427 287.035 397.582 285.701 396.889 284.287C396.413 285.048 396.021 285.938 395.819 286.847C395.427 288.599 395.819 289.858 396.955 290.562C398.154 291.302 399.504 291.268 401.187 290.399C402.926 289.504 404.779 287.819 406.592 285.722C410.064 281.704 412.984 276.657 414.303 274.376L414.609 273.85C415.922 271.581 419 266.259 422.714 261.965C424.637 259.738 426.845 257.653 429.18 256.45C431.57 255.217 434.309 254.819 436.903 256.424C439.845 258.243 440.194 261.415 439.612 263.97C439.135 266.069 437.97 268.158 436.555 269.568C438.733 277.742 435.902 286.765 428.721 292.105C425.607 294.422 421.915 295.839 418.047 296.201C414.179 296.564 410.282 295.858 406.779 294.16C408.468 292.865 409.997 291.303 411.321 289.769C415.164 285.317 418.315 279.868 419.64 277.577L420 276.955C421.335 274.645 424.128 269.83 427.397 266.046C429.126 264.043 430.711 262.663 431.998 262C432.231 261.881 432.43 261.794 432.594 261.736C432.748 261.929 432.899 262.125 433.047 262.324C433.848 263.405 434.533 264.528 435.103 265.694C435.567 264.944 435.952 264.067 436.155 263.169C436.562 261.393 436.172 260.136 435.049 259.441C433.85 258.699 432.501 258.735 430.811 259.605C429.07 260.503 427.214 262.191 425.396 264.291C421.908 268.324 418.974 273.395 417.661 275.666L417.355 276.192C416.039 278.469 412.973 283.768 409.277 288.047C407.357 290.271 405.151 292.354 402.819 293.555C400.432 294.786 397.693 295.182 395.1 293.578C392.171 291.767 391.788 288.621 392.357 286.064C392.83 283.948 394.006 281.844 395.447 280.426Z" fill="#C0C0C0"/>
</svg>
