<svg width="60" height="45" viewBox="0 0 60 45" fill="none" xmlns="http://www.w3.org/2000/svg">
<rect width="60" height="45" rx="10" fill="#FF4B4D"/>
<path d="M18.3951 9.50224C18.6944 8.58093 19.9978 8.58094 20.2972 9.50225L22.3425 15.7972C22.4764 16.2092 22.8604 16.4881 23.2936 16.4881H29.9125C30.8812 16.4881 31.284 17.7278 30.5002 18.2972L25.1455 22.1876C24.795 22.4423 24.6483 22.8936 24.7822 23.3057L26.8275 29.6006C27.1269 30.5219 26.0724 31.288 25.2887 30.7186L19.9339 26.8281C19.5834 26.5735 19.1088 26.5735 18.7584 26.8281L13.4036 30.7186C12.6199 31.288 11.5654 30.5219 11.8647 29.6006L13.9101 23.3057C14.044 22.8936 13.8973 22.4423 13.5468 22.1876L8.19205 18.2972C7.40833 17.7278 7.81111 16.4881 8.77983 16.4881H15.3987C15.8319 16.4881 16.2159 16.2092 16.3497 15.7972L18.3951 9.50224Z" fill="#FCC005"/>
<path d="M32.3485 5.05738C33.0255 4.36454 34.1936 4.94285 34.0531 5.90133L33.9265 6.76488C33.8637 7.19353 34.084 7.61388 34.4722 7.8061L35.2544 8.19334C36.1226 8.62316 35.9335 9.91278 34.9785 10.0753L34.1181 10.2218C33.691 10.2945 33.3593 10.6339 33.2965 11.0626L33.1699 11.9261C33.0294 12.8846 31.7445 13.1033 31.2948 12.2453L30.8896 11.4723C30.6885 11.0886 30.2632 10.878 29.8361 10.9507L28.9757 11.0972C28.0207 11.2597 27.4156 10.1053 28.0927 9.41243L28.7027 8.78821C29.0054 8.47836 29.0743 8.00878 28.8732 7.62507L28.468 6.85204C28.0183 5.99402 28.9293 5.06181 29.7974 5.49163L30.5796 5.87887C30.9678 6.07109 31.4357 5.99145 31.7385 5.6816L32.3485 5.05738Z" fill="#FCC005"/>
<path d="M32.3485 32.1277C33.0255 31.4349 34.1936 32.0132 34.0531 32.9716L33.9265 33.8352C33.8637 34.2638 34.084 34.6842 34.4722 34.8764L35.2544 35.2637C36.1226 35.6935 35.9335 36.9831 34.9785 37.1457L34.1181 37.2921C33.691 37.3648 33.3593 37.7043 33.2965 38.1329L33.1699 38.9964C33.0294 39.9549 31.7445 40.1736 31.2948 39.3156L30.8896 38.5426C30.6885 38.1589 30.2632 37.9483 29.8361 38.021L28.9757 38.1675C28.0207 38.33 27.4156 37.1756 28.0927 36.4827L28.7027 35.8585C29.0054 35.5487 29.0743 35.0791 28.8732 34.6954L28.468 33.9224C28.0183 33.0643 28.9293 32.1321 29.7974 32.5619L30.5796 32.9492C30.9678 33.1414 31.4357 33.0618 31.7385 32.7519L32.3485 32.1277Z" fill="#FCC005"/>
<path d="M39.3183 23.9866C39.6177 23.0653 40.9211 23.0653 41.2204 23.9866L41.4901 24.8167C41.624 25.2287 42.008 25.5077 42.4412 25.5077H43.314C44.2827 25.5077 44.6855 26.7473 43.9018 27.3167L43.1957 27.8297C42.8452 28.0843 42.6985 28.5357 42.8324 28.9477L43.1021 29.7778C43.4014 30.6991 42.347 31.4652 41.5633 30.8958L40.8572 30.3828C40.5067 30.1282 40.0321 30.1282 39.6816 30.3828L38.9755 30.8958C38.1918 31.4652 37.1373 30.6991 37.4367 29.7778L37.7064 28.9477C37.8402 28.5357 37.6936 28.0843 37.3431 27.8297L36.637 27.3167C35.8533 26.7473 36.2561 25.5077 37.2248 25.5077H38.0976C38.5308 25.5077 38.9147 25.2287 39.0486 24.8167L39.3183 23.9866Z" fill="#FCC005"/>
<path d="M39.6833 13.0828C39.776 12.1186 41.0485 11.8364 41.5403 12.671L41.9833 13.423C42.2032 13.7962 42.6384 13.9854 43.0614 13.8916L43.9135 13.7027C44.8592 13.4929 45.5208 14.6159 44.879 15.3415L44.3007 15.9952C44.0137 16.3197 43.9682 16.7921 44.1881 17.1654L44.6312 17.9174C45.1229 18.752 44.2593 19.7283 43.3709 19.3421L42.5705 18.9941C42.1732 18.8214 41.7098 18.9242 41.4228 19.2486L40.8445 19.9024C40.2027 20.6279 39.0073 20.1083 39.1001 19.144L39.1837 18.2753C39.2252 17.844 38.9843 17.4351 38.587 17.2624L37.7866 16.9145C36.8981 16.5282 37.023 15.2308 37.9687 15.0211L38.8208 14.8321C39.2437 14.7383 39.5582 14.3828 39.5997 13.9516L39.6833 13.0828Z" fill="#FCC005"/>
</svg>
