<svg width="38" height="37" viewBox="0 0 38 37" fill="none" xmlns="http://www.w3.org/2000/svg">
<path fill-rule="evenodd" clip-rule="evenodd" d="M19 0C19.552 0 20.0813 0.213483 20.4716 0.593486C20.8619 0.973488 21.0812 1.48888 21.0812 2.02629V3.79051C21.0812 4.32791 20.8619 4.84331 20.4716 5.22331C20.0813 5.60331 19.552 5.81679 19 5.81679C18.448 5.81679 17.9187 5.60331 17.5284 5.22331C17.1381 4.84331 16.9188 4.32791 16.9188 3.79051V2.02629C16.9188 1.48888 17.1381 0.973488 17.5284 0.593486C17.9187 0.213483 18.448 0 19 0ZM30.8989 18.5014C30.8989 20.0231 30.5911 21.5299 29.993 22.9358C29.3949 24.3416 28.5182 25.6191 27.413 26.6951C26.3078 27.7711 24.9958 28.6246 23.5518 29.207C22.1078 29.7893 20.5602 30.089 18.9972 30.089C17.4343 30.089 15.8866 29.7893 14.4426 29.207C12.9987 28.6246 11.6866 27.7711 10.5814 26.6951C9.47627 25.6191 8.5996 24.3416 8.00148 22.9358C7.40336 21.5299 7.09552 20.0231 7.09552 18.5014C7.09552 15.4281 8.34944 12.4807 10.5814 10.3076C12.8134 8.13453 15.8407 6.91369 18.9972 6.91369C22.1538 6.91369 25.181 8.13453 27.413 10.3076C29.645 12.4807 30.8989 15.4281 30.8989 18.5014ZM21.0812 33.2095C21.0812 32.6721 20.8619 32.1567 20.4716 31.7767C20.0813 31.3967 19.552 31.1832 19 31.1832C18.448 31.1832 17.9187 31.3967 17.5284 31.7767C17.1381 32.1567 16.9188 32.6721 16.9188 33.2095V34.9737C16.9188 35.5111 17.1381 36.0265 17.5284 36.4065C17.9187 36.7865 18.448 37 19 37C19.552 37 20.0813 36.7865 20.4716 36.4065C20.8619 36.0265 21.0812 35.5111 21.0812 34.9737V33.2095ZM0 18.5014C0 17.9639 0.219269 17.4486 0.60957 17.0686C0.999872 16.6885 1.52923 16.4751 2.0812 16.4751H3.89046C4.44243 16.4751 4.9718 16.6885 5.3621 17.0686C5.7524 17.4486 5.97167 17.9639 5.97167 18.5014C5.97167 19.0388 5.7524 19.5541 5.3621 19.9342C4.9718 20.3142 4.44243 20.5276 3.89046 20.5276H2.0812C1.52923 20.5276 0.999872 20.3142 0.60957 19.9342C0.219269 19.5541 0 19.0388 0 18.5014ZM34.1095 16.4751C33.5576 16.4751 33.0282 16.6885 32.6379 17.0686C32.2476 17.4486 32.0283 17.9639 32.0283 18.5014C32.0283 19.0388 32.2476 19.5541 32.6379 19.9342C33.0282 20.3142 33.5576 20.5276 34.1095 20.5276H35.9188C36.4708 20.5276 37.0001 20.3142 37.3904 19.9342C37.7807 19.5541 38 19.0388 38 18.5014C38 17.9639 37.7807 17.4486 37.3904 17.0686C37.0001 16.6885 36.4708 16.4751 35.9188 16.4751H34.1095ZM32.5556 5.30077C32.9453 5.6807 33.1642 6.19571 33.1642 6.73268C33.1642 7.26964 32.9453 7.78466 32.5556 8.16459L31.3512 9.33983C31.1594 9.53345 30.9298 9.68792 30.6759 9.79423C30.4221 9.90054 30.149 9.95656 29.8727 9.95903C29.5963 9.96149 29.3222 9.91035 29.0664 9.80858C28.8106 9.70681 28.5782 9.55646 28.3827 9.3663C28.1872 9.17614 28.0325 8.94997 27.9277 8.701C27.823 8.45202 27.7702 8.18523 27.7725 7.91618C27.7747 7.64713 27.832 7.38122 27.941 7.13395C28.0499 6.88669 28.2084 6.66302 28.407 6.47601L29.6114 5.30077C30.0016 4.92131 30.5306 4.70817 31.0821 4.70817C31.6336 4.70817 32.1653 4.92131 32.5556 5.30077ZM9.58741 30.524C9.79189 30.3385 9.95589 30.1148 10.0696 29.8662C10.1834 29.6177 10.2446 29.3493 10.2495 29.0773C10.2544 28.8052 10.203 28.535 10.0983 28.2826C9.99367 28.0303 9.83787 27.8011 9.64024 27.6087C9.44261 27.4163 9.2072 27.2646 8.94806 27.1627C8.68891 27.0608 8.41134 27.0108 8.13189 27.0156C7.85245 27.0204 7.57686 27.0799 7.32157 27.1907C7.06628 27.3014 6.83651 27.4611 6.64598 27.6602L5.44165 28.83C5.06236 29.212 4.85233 29.7237 4.85681 30.255C4.8613 30.7863 5.07993 31.2947 5.46562 31.6705C5.85131 32.0464 6.3732 32.2597 6.91889 32.2646C7.46457 32.2695 7.99039 32.0655 8.38309 31.6965L9.58741 30.524ZM5.44443 5.30077C5.83466 4.92131 6.36362 4.70817 6.91515 4.70817C7.46667 4.70817 7.99564 4.92131 8.38586 5.30077L9.59019 6.47331C9.95781 6.85743 10.1579 7.36548 10.1484 7.89042C10.1389 8.41537 9.9205 8.91623 9.53919 9.28748C9.15787 9.65873 8.64344 9.87139 8.10427 9.88065C7.5651 9.88991 7.04328 9.69505 6.64875 9.33713L5.44443 8.16729C5.05469 7.78736 4.83577 7.27235 4.83577 6.73538C4.83577 6.19841 5.05469 5.6834 5.44443 5.30347M31.3512 27.6629C31.1594 27.4693 30.9298 27.3148 30.6759 27.2085C30.4221 27.1022 30.149 27.0461 29.8727 27.0437C29.5963 27.0412 29.3222 27.0924 29.0664 27.1941C28.8106 27.2959 28.5782 27.4462 28.3827 27.6364C28.1872 27.8266 28.0325 28.0527 27.9277 28.3017C27.823 28.5507 27.7702 28.8175 27.7725 29.0865C27.7747 29.3556 27.832 29.6215 27.941 29.8688C28.0499 30.116 28.2084 30.3397 28.407 30.5267L29.6114 31.6992C30.0059 32.0572 30.5277 32.252 31.0669 32.2428C31.6061 32.2335 32.1205 32.0208 32.5018 31.6496C32.8831 31.2783 33.1015 30.7775 33.111 30.2525C33.1206 29.7276 32.9204 29.2195 32.5528 28.8354L31.3512 27.6629Z" fill="#FFD057"/>
</svg>
