<svg width="26" height="33" viewBox="0 0 26 33" fill="none" xmlns="http://www.w3.org/2000/svg">
<path opacity="0.5" d="M8.125 8.125C8.125 6.83207 8.63861 5.59209 9.55285 4.67785C10.4671 3.76361 11.7071 3.25 13 3.25C14.2929 3.25 15.5329 3.76361 16.4471 4.67785C17.3614 5.59209 17.875 6.83207 17.875 8.125V11.375H21.125V8.125C21.125 5.97012 20.269 3.90349 18.7452 2.37976C17.2215 0.856024 15.1549 0 13 0C10.8451 0 8.77849 0.856024 7.25476 2.37976C5.73102 3.90349 4.875 5.97012 4.875 8.125V11.375H8.125V8.125ZM13 26C12.569 26 12.1557 25.8288 11.851 25.524C11.5462 25.2193 11.375 24.806 11.375 24.375V19.5C11.375 19.069 11.5462 18.6557 11.851 18.351C12.1557 18.0462 12.569 17.875 13 17.875C13.431 17.875 13.8443 18.0462 14.149 18.351C14.4538 18.6557 14.625 19.069 14.625 19.5V24.375C14.625 24.806 14.4538 25.2193 14.149 25.524C13.8443 25.8288 13.431 26 13 26Z" fill="#26415E"/>
<path d="M21.125 11.375H4.875C3.58207 11.375 2.34209 11.8886 1.42785 12.8029C0.513615 13.7171 0 14.9571 0 16.25V27.625C0 28.9179 0.513615 30.1579 1.42785 31.0721C2.34209 31.9864 3.58207 32.5 4.875 32.5H21.125C22.4179 32.5 23.6579 31.9864 24.5721 31.0721C25.4864 30.1579 26 28.9179 26 27.625V16.25C26 14.9571 25.4864 13.7171 24.5721 12.8029C23.6579 11.8886 22.4179 11.375 21.125 11.375ZM14.625 24.375C14.625 24.806 14.4538 25.2193 14.149 25.524C13.8443 25.8288 13.431 26 13 26C12.569 26 12.1557 25.8288 11.851 25.524C11.5462 25.2193 11.375 24.806 11.375 24.375V19.5C11.375 19.069 11.5462 18.6557 11.851 18.351C12.1557 18.0462 12.569 17.875 13 17.875C13.431 17.875 13.8443 18.0462 14.149 18.351C14.4538 18.6557 14.625 19.069 14.625 19.5V24.375Z" fill="#26415E"/>
</svg>
