<svg width="47" height="61" viewBox="0 0 47 61" fill="none" xmlns="http://www.w3.org/2000/svg">
<path fill-rule="evenodd" clip-rule="evenodd" d="M45.0761 18.0333C47.6218 20.5505 47.6218 24.6208 45.0761 27.138C35.2827 36.8031 19.866 42.2033 4.69618 45.1242C4.35315 45.1899 3.99987 45.179 3.6615 45.0925C3.32312 45.006 3.008 44.8459 2.73858 44.6237C2.46917 44.4014 2.25209 44.1225 2.10282 43.8068C1.95355 43.491 1.87576 43.1462 1.875 42.797V2.37908C1.87436 2.02902 1.95112 1.68315 2.09978 1.36623C2.24844 1.04931 2.46533 0.769173 2.73492 0.545877C3.00451 0.322581 3.32013 0.161647 3.6592 0.0745972C3.99826 -0.012453 4.35237 -0.0234667 4.69618 0.0423445C19.866 2.96326 35.2827 8.36339 45.0761 18.0333Z" fill="#5A7FA8"/>
<path fill-rule="evenodd" clip-rule="evenodd" d="M3.56209 60.5936C2.61737 60.5936 1.71134 60.2183 1.04331 59.5503C0.375291 58.8823 0 57.9763 0 57.0315V3.73787C-9.85774e-09 3.27009 0.0921359 2.80689 0.271148 2.37472C0.45016 1.94255 0.712542 1.54987 1.04331 1.21909C1.37408 0.888323 1.76677 0.625941 2.19894 0.446929C2.63111 0.267917 3.09431 0.175781 3.56209 0.175781C4.02987 0.175781 4.49307 0.267917 4.92525 0.446929C5.35742 0.625941 5.7501 0.888323 6.08087 1.21909C6.41164 1.54987 6.67403 1.94255 6.85304 2.37472C7.03205 2.80689 7.12419 3.27009 7.12419 3.73787V57.0268C7.12419 57.9715 6.7489 58.8775 6.08087 59.5456C5.41285 60.2136 4.50682 60.5936 3.56209 60.5936Z" fill="#26415E"/>
</svg>
