<svg width="77" height="92" viewBox="0 0 77 92" fill="none" xmlns="http://www.w3.org/2000/svg">
  <rect width="77" height="92" rx="15" fill="#26415E"/>
  <g transform="translate(22.5 28.5)">
    <mask id="mask0_373_2979" style="mask-type:luminance" maskUnits="userSpaceOnUse" x="0" y="0" width="32" height="35">
      <path d="M5.5 3.95833C5.5 3.57156 5.65804 3.20063 5.93934 2.92714C6.22064 2.65365 6.60218 2.5 7 2.5H28C28.3978 2.5 28.7794 2.65365 29.0607 2.92714C29.342 3.20063 29.5 3.57156 29.5 3.95833V30.2083C29.5 30.5951 29.342 30.966 29.0607 31.2395C28.7794 31.513 28.3978 31.6667 28 31.6667H7C6.60218 31.6667 6.22064 31.513 5.93934 31.2395C5.65804 30.966 5.5 30.5951 5.5 30.2083V3.95833Z" fill="white" stroke="white" stroke-width="5" stroke-linejoin="round"/>
      <path d="M23.5 3.95898V30.209" stroke="black" stroke-width="5" stroke-linecap="round" stroke-linejoin="round"/>
      <path d="M2.5 9.79167H8.5M2.5 17.0833H8.5M2.5 24.375H8.5M18.25 2.5H27.25M18.25 31.6667H27.25" stroke="white" stroke-width="5" stroke-linecap="round" stroke-linejoin="round"/>
    </mask>
    <g mask="url(#mask0_373_2979)">
      <path d="M-2 -0.416016H34V34.584H-2V-0.416016Z" fill="white"/>
    </g>
  </g>
</svg>
