<svg width="42" height="38" viewBox="0 0 42 38" fill="none" xmlns="http://www.w3.org/2000/svg">
<path d="M34.6142 28.0096C31.7439 28.6322 28.7475 28.602 25.8932 27.9218C23.039 27.2417 20.4161 25.9327 18.2593 24.1122C16.1026 22.2917 14.4794 20.0164 13.535 17.4902C12.5906 14.9639 12.3546 12.2656 12.8481 9.63672C12.7741 9.70329 12.6948 9.76479 12.6108 9.82071C12.0228 10.2247 11.2878 10.3746 9.81782 10.6743L8.48434 10.9474C3.31843 12.004 0.73548 12.5313 0.120191 14.3163C-0.492998 16.0993 1.26677 17.9601 4.78841 21.6798L5.69979 22.6415C6.69938 23.6981 7.20127 24.2273 7.42596 24.8798C7.65066 25.5342 7.57506 26.2399 7.42386 27.6492L7.28526 28.9334C6.75397 33.8975 6.48728 36.3785 8.09585 37.4806C9.70442 38.5827 12.1236 37.5792 16.9577 35.5667L18.2114 35.0469C19.5847 34.4741 20.2714 34.1896 21.0001 34.1896C21.7288 34.1896 22.4155 34.4741 23.791 35.0469L25.0404 35.5667C29.8767 37.5773 32.2958 38.5827 33.9023 37.4825C35.513 36.3785 35.2463 33.8975 34.715 28.9334L34.6142 28.0096Z" fill="#BFADD2"/>
<path opacity="0.5" d="M15.0226 6.46447L14.3338 7.57982C13.5779 8.80519 13.1999 9.41787 12.6119 9.8219C12.6959 9.76499 12.775 9.70366 12.8492 9.6379C12.3556 12.267 12.5916 14.9655 13.5361 17.492C14.4805 20.0184 16.104 22.2938 18.261 24.1144C20.418 25.935 23.0412 27.2439 25.8958 27.9239C28.7503 28.6039 31.7469 28.6337 34.6174 28.0108L34.5754 27.6504C34.4263 26.241 34.3507 25.5354 34.5754 24.881C34.8001 24.2285 35.2999 23.6993 36.3016 22.6427L37.2129 21.681C40.7346 17.9632 42.4943 16.1024 41.8791 14.3174C41.2659 12.5325 38.6829 12.0033 33.517 10.9486L32.1814 10.6755C30.7136 10.3758 29.9786 10.2259 29.3885 9.8219C28.8005 9.41787 28.4225 8.80519 27.6665 7.57982L26.9798 6.46447C24.3192 2.15482 22.9899 0 21.0012 0C19.0126 0 17.6833 2.15482 15.0226 6.46447Z" fill="#BFADD2"/>
</svg>
