<svg width="320" height="108" viewBox="0 0 320 108" fill="none" xmlns="http://www.w3.org/2000/svg">
<mask id="path-1-inside-1_21_220" fill="white">
<path d="M305 0C313.284 -5.07228e-06 320 6.71573 320 15V83C320 91.2842 313.284 98 305 98H171.621C171.068 98 170.539 98.2293 170.161 98.6335L161.987 107.369C161.196 108.214 159.856 108.214 159.066 107.369L150.892 98.6335C150.513 98.2293 149.985 98 149.431 98H15C6.71573 98 5.80607e-06 91.2843 0 83V15C0.00011558 6.71583 6.7158 5.68629e-06 15 0H305Z"/>
</mask>
<path d="M305 0V1V1V0ZM320 15H321V15L320 15ZM320 83L321 83V83H320ZM305 98V99V99V98ZM15 98V97H15L15 98ZM0 83H-1V83H0ZM0 15L-1 15V15H0ZM15 0V-1H15L15 0ZM150.892 98.6335L150.161 99.3167L150.892 98.6335ZM161.987 107.369L162.717 108.052L161.987 107.369ZM159.066 107.369L158.336 108.052L159.066 107.369ZM170.161 98.6335L170.891 99.3167L170.161 98.6335ZM305 0V1C312.732 0.999995 319 7.26801 319 15L320 15L321 15C321 6.16345 313.837 -1.00001 305 -1V0ZM320 15H319V83H320H321V15H320ZM320 83L319 83C319 90.7319 312.732 97 305 97V98V99C313.836 99 321 91.8364 321 83L320 83ZM305 98V97H171.621V98V99H305V98ZM170.161 98.6335L169.431 97.9502L161.257 106.686L161.987 107.369L162.717 108.052L170.891 99.3167L170.161 98.6335ZM159.066 107.369L159.796 106.686L151.622 97.9502L150.892 98.6335L150.161 99.3167L158.336 108.052L159.066 107.369ZM149.431 98V97H15V98V99H149.431V98ZM15 98L15 97C7.26801 97 1.00001 90.732 1 83H0H-1C-0.999994 91.8366 6.16344 99 15 99L15 98ZM0 83H1V15H0H-1V83H0ZM0 15L1 15C1.00011 7.26811 7.2681 1.00001 15 1L15 0L15 -1C6.16351 -0.999994 -0.999877 6.16356 -1 15L0 15ZM15 0V1H305V0V-1H15V0ZM150.892 98.6335L151.622 97.9502C151.055 97.344 150.261 97 149.431 97V98V99C149.708 99 149.972 99.1147 150.161 99.3167L150.892 98.6335ZM161.987 107.369L161.257 106.686C160.861 107.108 160.191 107.108 159.796 106.686L159.066 107.369L158.336 108.052C159.521 109.319 161.531 109.319 162.717 108.052L161.987 107.369ZM171.621 98V97C170.791 97 169.998 97.344 169.431 97.9502L170.161 98.6335L170.891 99.3167C171.08 99.1147 171.345 99 171.621 99V98Z" fill="#0B1B32" mask="url(#path-1-inside-1_21_220)"/>
</svg>
