<svg width="358" height="118" viewBox="0 0 358 118" fill="none" xmlns="http://www.w3.org/2000/svg">
<mask id="path-1-inside-1_21_363" fill="white">
<path d="M358 102.999C358 111.283 351.284 117.999 343 117.999L32.1387 117.999C23.8544 117.999 17.1387 111.283 17.1387 102.999V93.9237C17.1387 92.8192 16.2433 91.9238 15.1388 91.9237L2.00412 91.9231C0.150452 91.923 -0.70575 89.6195 0.697845 88.4087L16.445 74.8249C16.8855 74.445 17.1387 73.8922 17.1387 73.3105V15C17.1387 6.71576 23.8544 1.39446e-05 32.1387 0L343 0C351.284 4.61005e-06 358 6.71573 358 15V102.999Z"/>
</mask>
<path d="M358 102.999H359V102.999H358ZM343 117.999V118.999H343L343 117.999ZM32.1387 117.999V116.999V116.999V117.999ZM17.1387 15L16.1387 15V15H17.1387ZM32.1387 0V-1V-1V0ZM343 0L343 -1H343V0ZM358 15L357 15V15H358ZM16.445 74.8249L15.7918 74.0677L16.445 74.8249ZM2.00412 91.9231L2.00406 92.9231L2.00412 91.9231ZM0.697845 88.4087L0.0446777 87.6515L0.697845 88.4087ZM15.1388 91.9237L15.1387 92.9237L15.1388 91.9237ZM358 102.999H357C357 110.731 350.732 116.999 343 116.999L343 117.999L343 118.999C351.837 118.999 359 111.836 359 102.999H358ZM343 117.999V116.999L32.1387 116.999V117.999V118.999L343 118.999V117.999ZM32.1387 117.999V116.999C24.4067 116.999 18.1387 110.731 18.1387 102.999H17.1387H16.1387C16.1387 111.836 23.3021 118.999 32.1387 118.999V117.999ZM17.1387 102.999H18.1387V93.9237H17.1387H16.1387V102.999H17.1387ZM15.1388 91.9237L15.1388 90.9237L2.00415 90.9231L2.00412 91.9231L2.00406 92.9231L15.1387 92.9237L15.1388 91.9237ZM0.697845 88.4087L1.35101 89.1659L17.0982 75.5821L16.445 74.8249L15.7918 74.0677L0.0446777 87.6515L0.697845 88.4087ZM17.1387 73.3105H18.1387V15H17.1387H16.1387V73.3105H17.1387ZM17.1387 15L18.1387 15C18.1387 7.26804 24.4067 1.00001 32.1387 1V0V-1C23.3021 -0.999985 16.1387 6.16348 16.1387 15L17.1387 15ZM32.1387 0V1L343 1V0V-1L32.1387 -1V0ZM343 0L343 1C350.732 1 357 7.26801 357 15L358 15L359 15C359 6.16344 351.837 -0.999995 343 -1L343 0ZM358 15H357V102.999H358H359V15H358ZM16.445 74.8249L17.0982 75.5821C17.7589 75.0122 18.1387 74.183 18.1387 73.3105H17.1387H16.1387C16.1387 73.6013 16.0121 73.8777 15.7918 74.0677L16.445 74.8249ZM2.00412 91.9231L2.00415 90.9231C1.07733 90.9231 0.649231 89.7713 1.35101 89.1659L0.697845 88.4087L0.0446777 87.6515C-2.06073 89.4676 -0.776428 92.923 2.00406 92.9231L2.00412 91.9231ZM17.1387 93.9237H18.1387C18.1387 92.2669 16.7956 90.9238 15.1388 90.9237L15.1388 91.9237L15.1387 92.9237C15.691 92.9238 16.1387 93.3715 16.1387 93.9237H17.1387Z" fill="#0B1B32" mask="url(#path-1-inside-1_21_363)"/>
</svg>
