<svg width="391" height="90" viewBox="0 0 391 90" fill="none" xmlns="http://www.w3.org/2000/svg">
<mask id="path-1-inside-1_21_96" fill="white">
<path d="M376 0C384.284 -4.09351e-06 391 6.71573 391 15V65C391 73.2842 384.284 80 376 80H206.621C206.068 80 205.539 80.2293 205.161 80.6335L196.987 89.3691C196.196 90.2137 194.856 90.2137 194.066 89.3691L185.892 80.6335C185.513 80.2293 184.985 80 184.431 80H15C6.71573 80 4.12351e-06 73.2843 0 65V15C0.000105657 6.71582 6.7158 4.09347e-06 15 0H376Z"/>
</mask>
<path d="M376 0V1V1V0ZM391 15H392V15H391ZM391 65L392 65V65H391ZM376 80V81V81V80ZM15 80V79H15L15 80ZM0 65H-1V65H0ZM0 15L-1 15V15H0ZM15 0V-1H15L15 0ZM185.892 80.6335L185.161 81.3167L185.892 80.6335ZM196.987 89.3691L197.717 90.0524L196.987 89.3691ZM194.066 89.3691L193.336 90.0524L194.066 89.3691ZM205.161 80.6335L205.891 81.3167L205.161 80.6335ZM376 0V1C383.732 0.999996 390 7.26801 390 15H391H392C392 6.16344 384.837 -1 376 -1V0ZM391 15H390V65H391H392V15H391ZM391 65L390 65C390 72.7319 383.732 79 376 79V80V81C384.837 81 392 73.8364 392 65L391 65ZM376 80V79H206.621V80V81H376V80ZM205.161 80.6335L204.431 79.9502L196.257 88.6858L196.987 89.3691L197.717 90.0524L205.891 81.3167L205.161 80.6335ZM194.066 89.3691L194.796 88.6858L186.622 79.9502L185.892 80.6335L185.161 81.3167L193.336 90.0524L194.066 89.3691ZM184.431 80V79H15V80V81H184.431V80ZM15 80L15 79C7.26801 79 1 72.732 1 65H0H-1C-0.999996 73.8365 6.16344 81 15 81L15 80ZM0 65H1V15H0H-1V65H0ZM0 15L1 15C1.0001 7.2681 7.26809 1 15 1L15 0L15 -1C6.1635 -0.999996 -0.999887 6.16355 -1 15L0 15ZM15 0V1H376V0V-1H15V0ZM185.892 80.6335L186.622 79.9502C186.055 79.344 185.261 79 184.431 79V80V81C184.708 81 184.972 81.1147 185.161 81.3167L185.892 80.6335ZM196.987 89.3691L196.257 88.6858C195.861 89.1081 195.191 89.1081 194.796 88.6858L194.066 89.3691L193.336 90.0524C194.521 91.3193 196.531 91.3193 197.717 90.0524L196.987 89.3691ZM206.621 80V79C205.791 79 204.998 79.344 204.431 79.9502L205.161 80.6335L205.891 81.3167C206.08 81.1147 206.345 81 206.621 81V80Z" fill="#0B1B32" mask="url(#path-1-inside-1_21_96)"/>
</svg>
