<svg width="313" height="118" viewBox="0 0 313 118" fill="none" xmlns="http://www.w3.org/2000/svg">
<mask id="path-1-inside-1_21_300" fill="white">
<path d="M313.004 102.999C313.004 111.283 306.288 117.999 298.004 117.999L31.6299 117.999C23.3457 117.999 16.6299 111.283 16.6299 102.999V93.9237C16.6299 92.8192 15.7345 91.9238 14.63 91.9237L2.00418 91.9231C0.165924 91.923 -0.698578 89.6516 0.674438 88.4293L15.9597 74.8222C16.386 74.4427 16.6299 73.8991 16.6299 73.3283V15C16.6299 6.71584 23.3457 0.000145935 31.6299 0L298.004 0C306.288 -2.7215e-06 313.004 6.71572 313.004 15V102.999Z"/>
</mask>
<path d="M313.004 102.999H314.004V102.999H313.004ZM298.004 117.999V118.999H298.004L298.004 117.999ZM31.6299 117.999V118.999V118.999V117.999ZM16.6299 102.999H17.6299V102.999H16.6299ZM16.6299 15L15.6299 15V15H16.6299ZM31.6299 0V-1H31.6299L31.6299 0ZM298.004 0V1V1V0ZM313.004 15L312.004 15V15H313.004ZM15.9597 74.8222L16.6246 75.5691L15.9597 74.8222ZM2.00418 91.9231L2.00421 90.9231L2.00418 91.9231ZM0.674438 88.4293L0.00952148 87.6824L0.674438 88.4293ZM14.63 91.9237L14.63 90.9237L14.63 91.9237ZM313.004 102.999H312.004C312.004 110.731 305.736 116.999 298.004 116.999L298.004 117.999L298.004 118.999C306.84 118.999 314.004 111.836 314.004 102.999H313.004ZM298.004 117.999V116.999L31.6299 116.999V117.999V118.999L298.004 118.999V117.999ZM31.6299 117.999V116.999C23.898 116.999 17.6299 110.731 17.6299 102.999H16.6299H15.6299C15.6299 111.836 22.7934 118.999 31.6299 118.999V117.999ZM16.6299 102.999H17.6299V93.9237H16.6299H15.6299V102.999H16.6299ZM14.63 91.9237L14.63 90.9237L2.00421 90.9231L2.00418 91.9231L2.00412 92.9231L14.6299 92.9237L14.63 91.9237ZM0.674438 88.4293L1.33936 89.1762L16.6246 75.5691L15.9597 74.8222L15.2948 74.0753L0.00952148 87.6824L0.674438 88.4293ZM16.6299 73.3283H17.6299V15H16.6299H15.6299V73.3283H16.6299ZM16.6299 15L17.6299 15C17.6299 7.26814 23.898 1.00014 31.6299 1L31.6299 0L31.6299 -1C22.7935 -0.999844 15.6299 6.16354 15.6299 15L16.6299 15ZM31.6299 0V1L298.004 1V0V-1L31.6299 -1V0ZM298.004 0V1C305.736 0.999997 312.004 7.26801 312.004 15L313.004 15L314.004 15C314.004 6.16344 306.84 -1 298.004 -1V0ZM313.004 15H312.004V102.999H313.004H314.004V15H313.004ZM15.9597 74.8222L16.6246 75.5691C17.2641 74.9998 17.6299 74.1845 17.6299 73.3283H16.6299H15.6299C15.6299 73.6137 15.508 73.8855 15.2948 74.0753L15.9597 74.8222ZM2.00418 91.9231L2.00421 90.9231C1.08508 90.9231 0.652832 89.7873 1.33936 89.1762L0.674438 88.4293L0.00952148 87.6824C-2.05002 89.5158 -0.753265 92.923 2.00412 92.9231L2.00418 91.9231ZM16.6299 93.9237H17.6299C17.6299 92.2669 16.2868 90.9238 14.63 90.9237L14.63 91.9237L14.6299 92.9237C15.1822 92.9238 15.6299 93.3715 15.6299 93.9237H16.6299Z" fill="#0B1B32" mask="url(#path-1-inside-1_21_300)"/>
</svg>
