<svg width="274" height="118" viewBox="0 0 274 118" fill="none" xmlns="http://www.w3.org/2000/svg">
<mask id="path-1-inside-1_21_337" fill="white">
<path fill-rule="evenodd" clip-rule="evenodd" d="M273.627 102.999C273.627 111.283 266.911 117.999 258.627 117.999L31.6279 118C23.3437 118 16.627 111.284 16.627 103L16.6277 93.923C16.6278 92.8184 15.7324 91.9229 14.6277 91.9229H2.00418C0.165924 91.9229 -0.6987 89.6514 0.674286 88.4291L15.9578 74.8222C16.3841 74.4427 16.6279 73.8991 16.6279 73.3284V15.001C16.6279 6.71688 23.3429 0.00124457 31.627 0.000976563L258.627 0C266.911 -1.85072e-05 273.627 6.71573 273.627 15V102.999Z"/>
</mask>
<path d="M273.627 102.999H274.627V102.999H273.627ZM258.627 117.999L258.627 116.999H258.627L258.627 117.999ZM31.6279 118V119V119V118ZM16.627 103L15.627 103V103H16.627ZM16.6279 15.001H15.6279V15.001H16.6279ZM31.627 0.000976563V-0.999023H31.6269L31.627 0.000976563ZM258.627 0L258.627 -1H258.627L258.627 0ZM273.627 15H274.627V15L273.627 15ZM15.9578 74.8222L15.2929 74.0753L15.9578 74.8222ZM16.6277 93.923L17.6277 93.9231L16.6277 93.923ZM273.627 102.999H272.627C272.627 110.731 266.359 116.999 258.627 116.999L258.627 117.999L258.627 118.999C267.463 118.999 274.627 111.836 274.627 102.999H273.627ZM258.627 117.999L258.627 116.999L31.6279 117V118V119L258.627 118.999L258.627 117.999ZM31.6279 118V117C23.8959 117 17.627 110.732 17.627 103H16.627H15.627C15.627 111.837 22.7915 119 31.6279 119V118ZM16.627 103L17.627 103L17.6277 93.9231L16.6277 93.923L15.6277 93.9229L15.627 103L16.627 103ZM14.6277 91.9229V90.9229H2.00418V91.9229V92.9229H14.6277V91.9229ZM0.674286 88.4291L1.33923 89.176L16.6228 75.5691L15.9578 74.8222L15.2929 74.0753L0.00933838 87.6822L0.674286 88.4291ZM16.6279 73.3284H17.6279V15.001H16.6279H15.6279V73.3284H16.6279ZM16.6279 15.001H17.6279C17.6279 7.26911 23.8952 1.00123 31.627 1.00098L31.627 0.000976563L31.6269 -0.999023C22.7906 -0.998738 15.6279 6.16464 15.6279 15.001H16.6279ZM31.627 0.000976563V1.00098L258.627 1L258.627 0L258.627 -1L31.627 -0.999023V0.000976563ZM258.627 0L258.627 1C266.359 0.999983 272.627 7.26801 272.627 15L273.627 15L274.627 15C274.627 6.16345 267.464 -1.00002 258.627 -1L258.627 0ZM273.627 15H272.627V102.999H273.627H274.627V15H273.627ZM15.9578 74.8222L16.6228 75.5691C17.2622 74.9998 17.6279 74.1845 17.6279 73.3284H16.6279H15.6279C15.6279 73.6138 15.506 73.8855 15.2929 74.0753L15.9578 74.8222ZM2.00418 91.9229V90.9229C1.08505 90.9229 0.65274 89.7871 1.33923 89.176L0.674286 88.4291L0.00933838 87.6822C-2.05014 89.5157 -0.753204 92.9229 2.00418 92.9229V91.9229ZM16.6277 93.923L17.6277 93.9231C17.6279 92.2662 16.2847 90.9229 14.6277 90.9229V91.9229V92.9229C15.1801 92.9229 15.6278 93.3706 15.6277 93.9229L16.6277 93.923Z" fill="#0B1B32" mask="url(#path-1-inside-1_21_337)"/>
</svg>
