<svg width="133" height="131" viewBox="0 0 133 131" fill="none" xmlns="http://www.w3.org/2000/svg">
<circle cx="66.0605" cy="65.2325" r="29.3444" transform="rotate(28.0909 66.0605 65.2325)" fill="#D9D9D9"/>
<path d="M37.1535 58.3925C39.85 46.8909 49.2749 37.6335 61.6354 35.7759C66.9994 34.9686 72.4827 35.6514 77.4899 37.7503C82.4971 39.8492 86.8367 43.284 90.0373 47.6814C87.1032 48.165 84.1926 49.0869 81.5513 50.1037C73.8839 53.0632 66.4172 57.7067 63.2737 59.66L62.4228 60.1895C59.2543 62.159 52.6436 66.2573 46.1249 68.7705C42.673 70.1025 39.8127 70.7608 37.7896 70.731C37.4851 70.7276 37.181 70.7054 36.8791 70.6645C36.4791 68.501 36.3153 66.3004 36.3906 64.1017C35.3039 64.7269 34.2342 65.5653 33.3871 66.5535C31.7519 68.4558 31.406 70.2647 32.3442 71.8807C33.3352 73.5815 35.0208 74.4276 37.6677 74.464C40.4005 74.5051 43.7934 73.6463 47.4089 72.2546C54.3319 69.5852 61.2524 65.2848 64.3798 63.3415L65.103 62.8939C68.2144 60.9606 75.5099 56.4256 82.9136 53.576C86.7509 52.0958 90.843 50.9788 94.5131 51.0321C98.2707 51.0849 101.91 52.3953 104.052 56.0817C106.481 60.2596 104.824 64.3989 102.426 67.1663C100.456 69.4402 97.6463 71.2479 94.9737 72.0562C92.2808 83.5648 82.8538 92.825 70.4884 94.6833C65.1247 95.4909 59.6415 94.8084 54.6344 92.7099C49.6273 90.6114 45.2877 87.1772 42.0869 82.7803C45.0205 82.2943 47.934 81.3745 50.5749 80.3551C58.2423 77.3957 65.7115 72.7518 68.8525 70.7989L69.7059 70.2691C72.8719 68.2998 79.4826 64.2016 86.0013 61.6884C89.4508 60.3567 92.3135 59.6981 94.3366 59.7279C94.7012 59.735 95.0039 59.7573 95.2447 59.7947C95.3072 60.1334 95.3643 60.4745 95.416 60.8181C95.6921 62.6775 95.7978 64.513 95.7333 66.3249C96.7984 65.7055 97.8496 64.8774 98.6915 63.905C100.361 61.9825 100.708 60.176 99.7799 58.581C98.791 56.8773 97.1034 56.0341 94.4483 55.9939C91.7111 55.956 88.3133 56.8155 84.6904 58.2084C77.736 60.8849 70.7834 65.2053 67.67 67.1415L66.9468 67.589C63.8263 69.5287 56.5604 74.0442 49.1882 76.8865C45.3582 78.3657 41.2685 79.4823 37.6033 79.4282C33.8507 79.3748 30.2138 78.0615 28.0718 74.3776C25.6532 70.2182 27.2512 66.0877 29.6353 63.3098C31.6114 61.0125 34.4448 59.1936 37.1535 58.3925Z" fill="#C0C0C0"/>
</svg>
