<svg width="64" height="62" viewBox="0 0 64 62" fill="none" xmlns="http://www.w3.org/2000/svg">
<ellipse cx="31.8897" cy="30.6885" rx="24.5364" ry="23.4923" transform="rotate(165.955 31.8897 30.6885)" fill="#CDCDCD"/>
<path d="M37.9467 54.9026C44.6337 53.4517 50.4717 49.4065 54.1786 43.655C57.8856 37.9035 59.1585 30.9161 57.718 24.2268C55.8392 17.6473 51.4261 12.0822 45.4477 8.75362C39.4693 5.42504 32.4143 4.60507 25.8318 6.47372C19.1448 7.92455 13.3069 11.9698 9.59995 17.7213C5.893 23.4727 4.62004 30.4602 6.06057 37.1494C7.93935 43.729 12.3525 49.2941 18.3309 52.6227C24.3093 55.9512 31.3643 56.7712 37.9467 54.9026ZM10.7908 38.3676L15.0043 38.3427C15.868 38.3668 15.9487 38.4152 16.0375 38.4959C16.6833 39.0205 17.4502 39.7549 18.1768 40.4651C18.2495 40.7557 18.7823 41.1027 18.9438 41.3368C19.1052 41.5708 18.2983 43.5566 17.9756 44.4607C17.5649 45.1798 17.0449 45.8307 16.4342 46.3901C13.9047 44.2364 11.963 41.4761 10.7908 38.3676ZM36.9372 50.8668L37.0904 50.2453C37.1443 50.3443 37.1721 50.4554 37.1712 50.5681C37.1227 50.3744 37.5343 49.9627 37.7764 49.5591L38.5108 48.3805C38.8373 47.8094 38.9547 47.1425 38.8426 46.4943C38.7305 45.8461 38.3961 45.2572 37.8968 44.829L38.2842 44.7321C38.7904 44.5898 39.2579 44.3351 39.652 43.9871C40.046 43.639 40.3565 43.2066 40.5602 42.7219C40.7941 42.1406 40.8958 41.5146 40.858 40.8892C40.8202 40.2638 40.6439 39.6546 40.3417 39.1057L40.2852 38.8797C40.7351 38.678 41.1694 38.4432 41.5846 38.1773L42.2949 37.7252L44.1915 36.5303C44.7621 36.1959 45.2407 35.7251 45.5844 35.1601C45.928 34.5951 46.126 33.9536 46.1606 33.2932C46.182 32.7409 46.0655 32.1919 45.8216 31.6959C45.5777 31.1999 45.2142 30.7724 44.7637 30.4521C43.1202 29.3794 41.3202 28.5682 39.4279 28.0475C37.5326 27.3749 35.5144 27.1191 33.5112 27.2977L28.0872 28.6546C27.4418 28.8492 26.7577 28.8773 26.0986 28.7363C25.4395 28.5952 24.8267 28.2896 24.3175 27.848C24.0966 27.7108 23.9117 27.5227 23.7783 27.2994C23.6449 27.0762 23.5668 26.8243 23.5505 26.5647C23.516 26.1375 23.5852 25.7083 23.7521 25.3136C25.0326 23.5989 25.6591 21.4836 25.519 19.3482C25.5565 17.726 25.7019 16.1081 25.9541 14.5051C26.0912 13.4073 26.204 12.3499 26.2684 11.5104C27.3318 11.1606 28.4423 10.9753 29.5617 10.9611C29.9045 13.4242 31.078 15.6965 32.8882 17.4018C34.2949 18.4132 35.3055 19.8829 35.7462 21.5584C35.9364 23.2048 36.7028 24.731 37.9099 25.8668C39.1169 27.0026 40.6868 27.6748 42.3418 27.7646C46.5186 29.1062 50.4145 31.2012 53.8369 33.9458C52.8848 38.0647 50.7963 41.8339 47.8089 44.8251C44.8215 47.8163 41.0549 49.9095 36.9372 50.8668ZM53.6823 25.2364C53.9986 26.4945 54.1828 27.7822 54.2317 29.0785C50.7874 26.5699 46.9055 24.7255 42.7851 23.6398C40.6703 23.4141 40.1939 22.7443 39.6528 20.5811C38.9706 17.8842 37.3324 15.5268 35.0428 13.9468C34.2164 12.6654 33.6892 11.2143 33.5005 9.70128C38.0961 9.74408 42.5526 11.2838 46.1944 14.0872C49.8363 16.8906 52.465 20.8047 53.6823 25.2364ZM21.9098 12.3263C22.031 12.8106 21.7808 13.4564 21.7163 14.0214C21.397 15.8744 21.2353 17.7511 21.2329 19.6314C21.2539 20.7897 20.8845 21.9214 20.184 22.8441C19.3288 24.2362 19.0455 25.9053 19.3937 27.5017C19.5401 28.263 19.8413 28.9861 20.2788 29.6262C20.7163 30.2662 21.2807 30.8095 21.9369 31.2224C22.9518 31.9808 24.1294 32.4923 25.3764 32.7163C26.6235 32.9403 27.9055 32.8706 29.1209 32.5128L34.2544 31.2286C36.8284 31.2826 39.3513 31.9579 41.6081 33.197L40.2199 34.0932L39.4128 34.5695C39.0721 34.8401 38.6702 35.0231 38.2424 35.1024L37.8307 34.6908C37.4757 34.2982 36.9873 34.0517 36.4605 33.9996C35.9337 33.9474 35.4064 34.0933 34.9813 34.4088C34.5666 34.7453 34.291 35.2234 34.2076 35.7509C34.1242 36.2785 34.239 36.8182 34.5297 37.2662L34.6751 37.8474C35.2726 38.7271 36.0315 39.9781 36.5159 40.8175C35.6697 40.9919 34.8875 41.3949 34.2543 41.9827C33.6211 42.5706 33.1611 43.3207 32.9245 44.1517C32.8594 44.7428 32.9539 45.3406 33.1981 45.8828C33.4424 46.4251 33.8274 46.892 34.3133 47.2349C34.0183 47.6707 33.754 48.1266 33.5225 48.5992C33.3148 49.0279 33.2016 49.4962 33.1906 49.9725C33.1795 50.4487 33.2708 50.9218 33.4583 51.3597C28.7794 51.8243 24.0702 50.8477 19.9619 48.5608C20.7897 47.7197 21.4618 46.7385 21.9471 45.6628C22.4365 44.3469 22.8328 42.9982 23.133 41.6267C23.2052 40.809 23.0691 39.9863 22.7373 39.2354C22.4054 38.4845 21.8888 37.83 21.2355 37.3328C20.404 36.4773 19.516 35.6703 18.7329 35.0085C17.6794 34.1993 16.3585 33.8188 15.0359 33.9436C14.2772 33.9276 11.6296 34.041 9.76507 34.13C9.25915 29.6827 10.1583 25.1885 12.3364 21.2781C14.5145 17.3677 17.8622 14.2374 21.9098 12.3263Z" fill="#C0C0C0"/>
</svg>
