<svg width="39" height="39" viewBox="0 0 39 39" fill="none" xmlns="http://www.w3.org/2000/svg">
<ellipse cx="19.0904" cy="19.0891" rx="17" ry="16" transform="rotate(2.41594 19.0904 19.0891)" fill="#D9D9D9"/>
<path d="M29.4804 29.4187C29.0659 27.9332 27.7378 26.7946 26.1075 26.7258L24.2758 26.6485L24.5077 21.1534C24.5282 20.6676 24.3549 20.1936 24.0258 19.8356C23.6968 19.4776 23.2391 19.2649 22.7533 19.2444L11.763 18.7807L11.9176 15.1173L15.581 15.2719C16.0668 15.2924 16.5409 15.1191 16.8989 14.79C17.2569 14.461 17.4695 14.0033 17.49 13.5175L17.6446 9.85405L21.308 10.0086C22.2796 10.0496 23.2276 9.70296 23.9437 9.04492C24.6597 8.38689 25.0849 7.47137 25.1259 6.49977L25.1576 5.74877C27.3119 6.72479 29.1977 8.2083 30.6534 10.0723C32.1091 11.9363 33.0914 14.1253 33.5163 16.4519C33.9412 18.7786 33.796 21.1735 33.0931 23.4317C32.3903 25.6899 31.1506 27.7442 29.4804 29.4187ZM16.6453 33.538C9.44795 32.3352 4.12091 25.945 4.43622 18.4716C4.48414 17.3359 4.67704 16.2431 4.95922 15.2091L13.3629 24.3531L13.2856 26.1848C13.2446 27.1564 13.5913 28.1045 14.2493 28.8205C14.9073 29.5365 15.8229 29.9618 16.7945 30.0028M19.8627 0.772816C17.4572 0.671328 15.0554 1.04462 12.7942 1.87137C10.5331 2.69813 8.45687 3.96216 6.68422 5.59129C3.10417 8.88147 0.97778 13.4591 0.772816 18.317C0.567853 23.175 2.30111 27.9155 5.59129 31.4955C7.22042 33.2682 9.18275 34.7026 11.3662 35.7168C13.5497 36.7311 15.9116 37.3054 18.317 37.4069C23.175 37.6119 27.9155 35.8786 31.4955 32.5884C35.0755 29.2982 37.2019 24.7207 37.4069 19.8627C37.5084 17.4572 37.1351 15.0554 36.3083 12.7942C35.4816 10.5331 34.2176 8.45687 32.5884 6.68422C30.9593 4.91156 28.997 3.47714 26.8135 2.46286C24.63 1.44858 22.2681 0.874304 19.8627 0.772816Z" fill="#CDCDCD"/>
</svg>
