<svg width="70" height="70" viewBox="0 0 70 70" fill="none" xmlns="http://www.w3.org/2000/svg">
<circle cx="34.9941" cy="34.9942" r="25.4999" transform="rotate(-121.019 34.9941 34.9942)" fill="#D9D9D9"/>
<path d="M31.4479 9.73367C31.9742 10.1252 32.5042 10.5117 33.0378 10.8932L33.0618 10.9085C34.1607 11.6968 35.4184 12.6008 36.7082 13.6373C39.3113 15.72 42.1263 18.3923 44.2669 21.9522C46.6492 25.9142 47.4137 29.5904 47.7106 32.7265C47.8254 33.9369 47.8712 35.0966 47.9128 36.116L47.9424 36.9075C48.0005 38.152 48.0744 39.1014 48.2606 39.8761C49.0112 42.8992 50.0973 45.829 51.4986 48.611C52.0506 49.7172 52.6527 50.7978 53.303 51.8493L53.4107 52.0137L53.4383 52.0595L53.6555 52.3812C57.2457 48.5235 59.5531 43.6487 60.2609 38.4266C60.9686 33.2045 60.0418 27.8914 57.6079 23.2173C55.174 18.5432 51.3523 14.7375 46.6681 12.3231C41.9839 9.90876 36.667 9.00417 31.4479 9.73367ZM35.9756 60.4772L36.2453 59.4313L36.2501 59.4195L36.2645 59.3543L36.3285 59.0599C36.382 58.7927 36.459 58.3863 36.5329 57.8658C36.6806 56.8249 36.8213 55.327 36.7859 53.5362C36.7225 49.9472 35.9614 45.2573 33.2269 40.7096C31.4214 37.707 29.178 35.9258 26.9875 34.5888C26.1146 34.0575 25.2767 33.6092 24.4436 33.1639L23.7261 32.7771C22.704 32.2253 21.6389 31.622 20.7627 30.8873C18.494 28.9851 16.4538 26.826 14.6831 24.4532C14.0967 23.6638 13.5521 22.8441 13.0518 21.9975C10.7076 25.9568 9.47841 30.4765 9.49446 35.0777C9.5105 39.6788 10.7712 44.1899 13.1429 48.1327C15.495 52.046 18.8547 55.256 22.8711 57.4274C26.8875 59.5989 31.4132 60.6521 35.9756 60.4772Z" fill="#D3D3D3"/>
<path opacity="0.5" d="M26.7799 10.8483C25.0881 11.4193 23.4467 12.1831 21.8558 13.1397C19.4723 14.5702 17.3387 16.3808 15.5395 18.4999L16.149 19.7015L16.1635 19.7255L16.2239 19.8409C16.6921 20.6479 17.2043 21.4286 17.7581 22.1795C19.3496 24.3119 21.1847 26.2511 23.2261 27.9577C23.7684 28.4142 24.5166 28.8569 25.5449 29.414L26.1942 29.7614C27.0391 30.2115 28.0034 30.7266 28.9788 31.3243C31.5101 32.867 34.2843 35.0461 36.5038 38.7371C39.6811 44.0211 40.54 49.4229 40.6112 53.4654C40.647 55.1162 40.5491 56.7671 40.3186 58.4021C40.2453 58.9366 40.1532 59.4683 40.0424 59.9964C43.9715 59.1931 47.6588 57.4833 50.8104 55.0032L50.2608 54.1882L50.2464 54.1641L50.2087 54.1065C49.9991 53.7864 49.7976 53.4611 49.6043 53.1309C49.2105 52.4662 48.6717 51.5107 48.078 50.3205C46.8901 47.9492 45.4678 44.609 44.5445 40.7725C44.2613 39.6038 44.1783 38.3177 44.1228 37.0776L44.0861 36.21C44.0467 35.2042 44.0072 34.1835 43.9034 33.0855C43.6427 30.3263 42.9895 27.2557 40.9869 23.9252C39.1696 20.903 36.7371 18.56 34.3169 16.6232C33.1077 15.6514 31.9178 14.7958 30.8058 14.0005L30.7669 13.9704C29.6969 13.2004 28.6549 12.4523 27.8264 11.7425L26.7799 10.8483Z" fill="#D3D3D3"/>
</svg>
