<svg width="58" height="58" viewBox="0 0 58 58" fill="none" xmlns="http://www.w3.org/2000/svg">
<circle cx="28.5832" cy="28.5832" r="21.7212" transform="rotate(23.5118 28.5832 28.5832)" fill="#D9D9D9"/>
<path fill-rule="evenodd" clip-rule="evenodd" d="M20.4279 8.45378C23.1043 7.36508 25.9714 6.82299 28.8604 6.85944C31.7495 6.89588 34.602 7.51012 37.2499 8.66597C46.1705 12.5469 51.1647 21.691 50.1885 30.8764L37.1591 25.2079C36.6309 24.9781 36.033 24.9675 35.497 25.1786C34.961 25.3896 34.5307 25.8049 34.3009 26.3332C34.0711 26.8614 34.0605 27.4593 34.2715 27.9954C34.4825 28.5314 34.8978 28.9616 35.426 29.1915L49.268 35.2135C49.0484 35.8997 48.7928 36.578 48.501 37.2486C43.7152 48.2492 30.919 53.2872 19.9192 48.5016C17.2684 47.3522 14.8745 45.684 12.8784 43.5951C10.8822 41.5062 9.32434 39.039 8.29639 36.3387L20.5271 41.6598C21.0553 41.8896 21.6532 41.9001 22.1892 41.6891C22.7252 41.4781 23.1555 41.0627 23.3853 40.5345C23.6151 40.0062 23.6257 39.4083 23.4147 38.8723C23.2037 38.3363 22.7884 37.906 22.2602 37.6762L7.00017 31.0372C6.82031 29.4607 6.81375 27.8692 6.98059 26.2912L27.9766 35.4256C28.5048 35.6554 29.1027 35.666 29.6387 35.4549C30.1747 35.2439 30.6049 34.8286 30.8348 34.3003C31.0646 33.7721 31.0752 33.1742 30.8642 32.6381C30.6532 32.1021 30.2379 31.6719 29.7097 31.4421L7.90107 21.9541C9.28518 17.6154 12.0031 13.8241 15.6675 11.1203L32.9172 18.6249C33.4454 18.8547 34.0433 18.8652 34.5793 18.6542C35.1154 18.4432 35.5456 18.0278 35.7754 17.4996C36.0052 16.9713 36.0158 16.3734 35.8048 15.8374C35.5938 15.3014 35.1785 14.8711 34.6503 14.6413L20.4279 8.45378ZM27.2008 20.8755C26.6726 20.6457 26.0748 20.6351 25.5387 20.8462C25.0027 21.0572 24.5725 21.4725 24.3427 22.0008C24.1128 22.529 24.1023 23.1269 24.3133 23.663C24.5243 24.199 24.9396 24.6292 25.4678 24.859L29.4511 26.592C29.9793 26.8218 30.5772 26.8324 31.1132 26.6213C31.6492 26.4103 32.0794 25.995 32.3093 25.4667C32.5391 24.9385 32.5497 24.3405 32.3387 23.8045C32.1277 23.2685 31.7124 22.8383 31.1842 22.6084L27.2008 20.8755ZM21.1559 22.2915C20.62 22.5024 20.0222 22.4918 19.4941 22.262C18.966 22.0323 18.5508 21.6022 18.3397 21.0663C18.1285 20.5302 18.1369 19.9313 18.3666 19.4029C18.4803 19.1412 18.6444 18.9045 18.8496 18.7063C19.0548 18.5081 19.297 18.3522 19.5625 18.2476C19.8279 18.143 20.1113 18.0917 20.3966 18.0966C20.6818 18.1015 20.9633 18.1626 21.2249 18.2763C21.7533 18.506 22.1689 18.9362 22.3801 19.4722C22.4848 19.7378 22.5361 20.0214 22.5312 20.3068C22.5262 20.5922 22.465 20.8738 22.3511 21.1355C22.2373 21.3973 22.0729 21.634 21.8675 21.8322C21.6621 22.0304 21.4196 22.1862 21.1539 22.2906L21.1559 22.2915ZM32.7984 36.8317C32.8994 37.1019 33.0532 37.3492 33.2507 37.5593C33.4483 37.7694 33.6858 37.9381 33.9492 38.0554C34.2127 38.1728 34.4968 38.2365 34.7852 38.2428C35.0735 38.2492 35.3602 38.198 35.6286 38.0924C35.897 37.9867 36.1416 37.8287 36.3482 37.6274C36.5549 37.4262 36.7194 37.1859 36.8321 36.9204C36.9449 36.6549 37.0036 36.3697 37.005 36.0813C37.0063 35.7928 36.9502 35.507 36.8399 35.2405C36.6291 34.7043 36.2147 34.2719 35.6865 34.0418C35.1582 33.8118 34.5602 33.801 34.024 34.0119C33.4878 34.2228 33.0574 34.6381 32.8273 35.1663C32.5973 35.6946 32.5865 36.2927 32.7973 36.8289L32.7984 36.8317Z" fill="#CDCDCD"/>
</svg>
