<svg width="96" height="96" viewBox="0 0 96 96" fill="none" xmlns="http://www.w3.org/2000/svg">
<ellipse cx="46.316" cy="44.8593" rx="26.7379" ry="26.894" transform="rotate(-47.6415 46.316 44.8593)" fill="#D9D9D9"/>
<path d="M84.1639 23.6372C83.7354 23.0189 83.0798 22.5951 82.3399 22.458C81.6001 22.321 80.8361 22.482 80.2146 22.9057L13.832 68.5117C13.2126 68.9397 12.7881 69.5954 12.651 70.3354C12.514 71.0753 12.6756 71.8396 13.1005 72.461C13.529 73.0784 14.1842 73.5016 14.9235 73.6385C15.6627 73.7754 16.426 73.6149 17.0472 73.1919L28.5831 65.1938C30.0096 66.4325 31.5484 67.5088 33.1994 68.4227L59.424 50.4091C59.891 50.1122 60.4551 50.008 60.9974 50.1186C61.5398 50.2292 62.0181 50.5459 62.3315 51.0019C62.645 51.4579 62.769 52.0177 62.6776 52.5632C62.5862 53.1088 62.2865 53.5975 61.8415 53.9265L37.9387 70.5186C39.0724 70.8909 40.2258 71.1812 41.399 71.3895C61.8886 75.1572 78.7703 55.3483 71.7853 35.7317L71.7298 35.578L83.3518 27.5687C83.9795 27.1539 84.4175 26.5078 84.5702 25.7713C84.7228 25.0348 84.5751 24.2673 84.1639 23.6372ZM30.0615 33.8836C30.2924 33.7186 30.5539 33.6012 30.8307 33.5383C31.1075 33.4754 31.394 33.4683 31.6736 33.5174C31.9532 33.5665 32.2203 33.6708 32.4591 33.8242C32.6979 33.9776 32.9038 34.177 33.0646 34.4108C33.2255 34.6446 33.3381 34.9081 33.3959 35.1858C33.4537 35.4636 33.4555 35.7501 33.4012 36.0285C33.3469 36.307 33.2377 36.5718 33.0798 36.8075C32.9219 37.0433 32.7186 37.2452 32.4817 37.4015L19.2046 46.5226C19.4717 49.9069 20.3848 53.2106 21.8903 56.2559L65.8767 26.0403C51.4114 11.0828 26.1741 17.3744 20.4456 37.3649C20.2148 38.1721 20.0222 38.9882 19.8676 39.8132L19.6243 41.127L30.0615 33.8836Z" fill="#CDCDCD"/>
</svg>
