<svg width="58" height="58" viewBox="0 0 58 58" fill="none" xmlns="http://www.w3.org/2000/svg">
<ellipse cx="28.4538" cy="28.8534" rx="23.1103" ry="23.2063" transform="rotate(-75.0609 28.4538 28.8534)" fill="#C4C7FF"/>
<path d="M9.0995 41.4032C12.2737 46.1916 17.1071 49.6368 22.6691 51.0758C24.3942 51.5243 26.1268 51.7685 27.8368 51.8218M9.0995 41.4032C6.72952 37.8351 5.38639 33.6841 5.217 29.4042C5.04762 25.1243 6.05849 20.8802 8.13908 17.1362C10.2197 13.3922 13.2898 10.2924 17.0138 8.17587C20.7378 6.05932 24.9722 5.0075 29.2539 5.13545M9.0995 41.4032L13.4792 24.5608M27.8368 51.8218L34.2203 27.2738M27.8368 51.8218C31.7926 51.9403 35.7137 51.0515 39.2317 49.2388M29.2539 5.13545C34.4292 5.29087 39.4062 7.1618 43.4022 10.4541C47.3982 13.7464 50.1867 18.2732 51.3291 23.3229C52.4715 28.3726 51.9031 33.6587 49.7133 38.3499C47.5234 43.0412 43.8363 46.8716 39.2317 49.2388M29.2539 5.13545L25.482 19.6403M39.2317 49.2388L42.9585 34.9072M23.5233 27.1727L22.2175 32.1943" stroke="#9FB3F6" stroke-width="5" stroke-linecap="round" stroke-linejoin="round"/>
</svg>
