<svg width="594" height="569" viewBox="0 0 594 569" fill="none" xmlns="http://www.w3.org/2000/svg">
<circle cx="308.613" cy="284.5" r="53.5" fill="#D9D9D9"/>
<circle cx="307.613" cy="284.5" r="66" stroke="#E5C9D7"/>
<circle cx="307.613" cy="284.5" r="89" stroke="#83A6CE"/>
<circle cx="308.613" cy="284.5" r="133" stroke="#C48CB3"/>
<circle cx="308.613" cy="284.5" r="200" stroke="#83A6CE"/>
<circle cx="308.613" cy="284.5" r="284" stroke="#D0D0D0"/>
<circle cx="308.613" cy="284.5" r="284" stroke="#E5C9D7"/>
<circle cx="240.113" cy="227" r="4" fill="#C48CB3"/>
<circle cx="489.113" cy="65" r="4" fill="#ACCAEB"/>
<circle cx="340.113" cy="482" r="4" fill="#CD9CB5"/>
<circle cx="356.613" cy="327.5" r="7.5" fill="#83A6CE"/>
<circle cx="175.613" cy="277.5" r="7.5" fill="#667E98"/>
<circle cx="138.613" cy="391.5" r="7.5" fill="#E5C9D7"/>
<circle cx="28.1133" cy="243" r="6" fill="#83A6CE"/>
<circle cx="269.113" cy="364" r="5" fill="#E5C9D7"/>
<circle cx="213.113" cy="552" r="5" fill="#B0D5FF"/>
<circle cx="473.613" cy="515.5" r="8.5" fill="#83A6CE"/>
<circle cx="354.113" cy="159" r="5" fill="#ACCAEB"/>
<circle cx="386.613" cy="392.5" r="6.5" fill="#83A6CE"/>
<circle cx="266.613" cy="90.5" r="6.5" fill="#C48CB3"/>
<circle cx="189.613" cy="26.5" r="6.5" fill="#8BACCF"/>
<circle cx="486.113" cy="193" r="8" fill="#E2B1D3"/>
<ellipse cx="532.083" cy="462.587" rx="23.1103" ry="23.2063" transform="rotate(-75.0609 532.083 462.587)" fill="#CDCDCD"/>
<path d="M512.728 475.137C515.903 479.925 520.736 483.37 526.298 484.809C528.023 485.258 529.756 485.502 531.466 485.555M512.728 475.137C510.358 471.569 509.015 467.418 508.846 463.138C508.677 458.858 509.687 454.614 511.768 450.87C513.849 447.126 516.919 444.026 520.643 441.909C524.367 439.793 528.601 438.741 532.883 438.869M512.728 475.137L517.108 458.294M531.466 485.555L537.849 461.007M531.466 485.555C535.422 485.674 539.343 484.785 542.861 482.972M532.883 438.869C538.058 439.024 543.035 440.895 547.031 444.188C551.027 447.48 553.816 452.007 554.958 457.056C556.1 462.106 555.532 467.392 553.342 472.083C551.152 476.775 547.465 480.605 542.861 482.972M532.883 438.869L529.111 453.374M542.861 482.972L546.587 468.641M527.152 460.906L525.846 465.928" stroke="#C0C0C0" stroke-width="5" stroke-linecap="round" stroke-linejoin="round"/>
<ellipse cx="149.734" cy="47.0891" rx="17" ry="16" transform="rotate(2.41594 149.734 47.0891)" fill="#D9D9D9"/>
<path d="M160.124 57.4187C159.71 55.9332 158.382 54.7946 156.751 54.7258L154.92 54.6485L155.152 49.1534C155.172 48.6676 154.999 48.1936 154.67 47.8356C154.341 47.4776 153.883 47.2649 153.397 47.2444L142.407 46.7807L142.561 43.1173L146.225 43.2719C146.711 43.2924 147.185 43.1191 147.543 42.79C147.901 42.461 148.113 42.0033 148.134 41.5175L148.288 37.8541L151.952 38.0086C152.923 38.0496 153.871 37.703 154.587 37.0449C155.303 36.3869 155.729 35.4714 155.77 34.4998L155.801 33.7488C157.956 34.7248 159.841 36.2083 161.297 38.0723C162.753 39.9363 163.735 42.1253 164.16 44.4519C164.585 46.7786 164.44 49.1735 163.737 51.4317C163.034 53.6899 161.794 55.7442 160.124 57.4187ZM147.289 61.538C140.092 60.3352 134.765 53.945 135.08 46.4716C135.128 45.3359 135.321 44.2431 135.603 43.2091L144.007 52.3531L143.929 54.1848C143.888 55.1564 144.235 56.1045 144.893 56.8205C145.551 57.5365 146.467 57.9618 147.438 58.0028M150.506 28.7728C148.101 28.6713 145.699 29.0446 143.438 29.8714C141.177 30.6981 139.101 31.9622 137.328 33.5913C133.748 36.8815 131.622 41.4591 131.417 46.317C131.212 51.175 132.945 55.9155 136.235 59.4955C137.864 61.2682 139.827 62.7026 142.01 63.7168C144.194 64.7311 146.555 65.3054 148.961 65.4069C153.819 65.6119 158.559 63.8786 162.139 60.5884C165.719 57.2982 167.846 52.7207 168.051 47.8627C168.152 45.4572 167.779 43.0554 166.952 40.7942C166.125 38.5331 164.861 36.4569 163.232 34.6842C161.603 32.9116 159.641 31.4771 157.457 30.4629C155.274 29.4486 152.912 28.8743 150.506 28.7728Z" fill="#CDCDCD"/>
<circle cx="139.131" cy="184.487" r="18.1201" transform="rotate(50.9622 139.131 184.487)" fill="#D9D9D9"/>
<path d="M150.539 198.565C142.768 204.863 131.363 203.672 125.061 195.905L150.539 198.565ZM153.206 173.074C157.84 178.79 158.423 186.472 155.317 192.644L121.61 189.123C121.323 188.038 121.139 186.929 121.058 185.81L141.975 187.994L139.131 184.487L121.109 182.605C121.591 177.993 123.832 173.564 127.719 170.413C135.492 164.11 146.903 165.301 153.206 173.074Z" fill="#CDCDCD"/>
<circle cx="394.703" cy="98.2325" r="29.3444" transform="rotate(28.0909 394.703 98.2325)" fill="#D9D9D9"/>
<path d="M365.796 91.3925C368.493 79.8909 377.917 70.6335 390.278 68.7759C395.642 67.9686 401.125 68.6514 406.133 70.7503C411.14 72.8492 415.479 76.284 418.68 80.6814C415.746 81.165 412.835 82.0869 410.194 83.1037C402.527 86.0632 395.06 90.7067 391.916 92.66L391.065 93.1895C387.897 95.159 381.286 99.2573 374.767 101.771C371.316 103.103 368.455 103.761 366.432 103.731C366.128 103.728 365.824 103.705 365.522 103.665C365.122 101.501 364.958 99.3004 365.033 97.1017C363.946 97.7269 362.877 98.5653 362.03 99.5535C360.395 101.456 360.049 103.265 360.987 104.881C361.978 106.582 363.663 107.428 366.31 107.464C369.043 107.505 372.436 106.646 376.052 105.255C382.974 102.585 389.895 98.2848 393.022 96.3415L393.746 95.8939C396.857 93.9606 404.152 89.4256 411.556 86.576C415.394 85.0958 419.486 83.9788 423.156 84.0321C426.913 84.0849 430.552 85.3953 432.695 89.0817C435.123 93.2596 433.467 97.3989 431.069 100.166C429.099 102.44 426.289 104.248 423.616 105.056C420.923 116.565 411.496 125.825 399.131 127.683C393.767 128.491 388.284 127.808 383.277 125.71C378.27 123.611 373.93 120.177 370.729 115.78C373.663 115.294 376.577 114.374 379.218 113.355C386.885 110.396 394.354 105.752 397.495 103.799L398.348 103.269C401.514 101.3 408.125 97.2016 414.644 94.6884C418.093 93.3567 420.956 92.6981 422.979 92.7279C423.344 92.735 423.646 92.7573 423.887 92.7947C423.95 93.1334 424.007 93.4745 424.059 93.8181C424.335 95.6775 424.44 97.513 424.376 99.3249C425.441 98.7055 426.492 97.8774 427.334 96.905C429.004 94.9825 429.35 93.176 428.423 91.581C427.434 89.8773 425.746 89.0341 423.091 88.9939C420.354 88.956 416.956 89.8155 413.333 91.2084C406.379 93.8849 399.426 98.2053 396.313 100.141L395.589 100.589C392.469 102.529 385.203 107.044 377.831 109.887C374.001 111.366 369.911 112.482 366.246 112.428C362.493 112.375 358.856 111.061 356.714 107.378C354.296 103.218 355.894 99.0877 358.278 96.3098C360.254 94.0125 363.087 92.1936 365.796 91.3925Z" fill="#C0C0C0"/>
<circle cx="261.655" cy="478.013" r="21.7212" transform="rotate(23.5118 261.655 478.013)" fill="#D9D9D9"/>
<path fill-rule="evenodd" clip-rule="evenodd" d="M253.499 457.883C256.176 456.795 259.043 456.253 261.932 456.289C264.821 456.326 267.674 456.94 270.321 458.096C279.242 461.977 284.236 471.121 283.26 480.306L270.231 474.638C269.702 474.408 269.105 474.397 268.569 474.608C268.033 474.819 267.602 475.235 267.372 475.763C267.143 476.291 267.132 476.889 267.343 477.425C267.554 477.961 267.969 478.391 268.498 478.621L282.34 484.643C282.12 485.329 281.864 486.008 281.573 486.678C276.787 497.679 263.991 502.717 252.991 497.931C250.34 496.782 247.946 495.114 245.95 493.025C243.954 490.936 242.396 488.469 241.368 485.768L253.599 491.089C254.127 491.319 254.725 491.33 255.261 491.119C255.797 490.908 256.227 490.492 256.457 489.964C256.687 489.436 256.697 488.838 256.486 488.302C256.275 487.766 255.86 487.336 255.332 487.106L240.072 480.467C239.892 478.89 239.885 477.299 240.052 475.721L261.048 484.855C261.576 485.085 262.174 485.096 262.71 484.885C263.246 484.674 263.677 484.258 263.906 483.73C264.136 483.202 264.147 482.604 263.936 482.068C263.725 481.532 263.309 481.102 262.781 480.872L240.973 471.384C242.357 467.045 245.075 463.254 248.739 460.55L265.989 468.055C266.517 468.284 267.115 468.295 267.651 468.084C268.187 467.873 268.617 467.458 268.847 466.929C269.077 466.401 269.087 465.803 268.876 465.267C268.665 464.731 268.25 464.301 267.722 464.071L253.499 457.883ZM260.272 470.305C259.744 470.075 259.146 470.065 258.61 470.276C258.074 470.487 257.644 470.902 257.414 471.43C257.184 471.959 257.174 472.557 257.385 473.093C257.596 473.629 258.011 474.059 258.539 474.289L262.523 476.022C263.051 476.252 263.649 476.262 264.185 476.051C264.721 475.84 265.151 475.425 265.381 474.896C265.611 474.368 265.621 473.77 265.41 473.234C265.199 472.698 264.784 472.268 264.256 472.038L260.272 470.305ZM254.228 471.721C253.692 471.932 253.094 471.921 252.566 471.692C252.038 471.462 251.622 471.032 251.411 470.496C251.2 469.96 251.208 469.361 251.438 468.833C251.552 468.571 251.716 468.334 251.921 468.136C252.126 467.938 252.369 467.782 252.634 467.677C252.899 467.573 253.183 467.521 253.468 467.526C253.753 467.531 254.035 467.592 254.297 467.706C254.825 467.936 255.24 468.366 255.452 468.902C255.556 469.167 255.608 469.451 255.603 469.736C255.598 470.022 255.537 470.303 255.423 470.565C255.309 470.827 255.144 471.064 254.939 471.262C254.734 471.46 254.491 471.616 254.226 471.72L254.228 471.721ZM265.87 486.261C265.971 486.532 266.125 486.779 266.322 486.989C266.52 487.199 266.757 487.368 267.021 487.485C267.284 487.602 267.568 487.666 267.857 487.673C268.145 487.679 268.432 487.628 268.7 487.522C268.969 487.416 269.213 487.258 269.42 487.057C269.626 486.856 269.791 486.616 269.904 486.35C270.016 486.085 270.075 485.799 270.077 485.511C270.078 485.223 270.022 484.937 269.912 484.67C269.701 484.134 269.286 483.702 268.758 483.472C268.23 483.241 267.632 483.231 267.096 483.442C266.559 483.653 266.129 484.068 265.899 484.596C265.669 485.124 265.658 485.722 265.869 486.259L265.87 486.261Z" fill="#CDCDCD"/>
<ellipse cx="438.535" cy="253.688" rx="24.5364" ry="23.4923" transform="rotate(165.955 438.535 253.688)" fill="#CDCDCD"/>
<path d="M444.592 277.902C451.279 276.451 457.117 272.406 460.824 266.654C464.531 260.903 465.804 253.916 464.363 247.226C462.484 240.647 458.071 235.082 452.093 231.753C446.115 228.424 439.06 227.605 432.477 229.473C425.79 230.924 419.952 234.969 416.245 240.721C412.538 246.472 411.265 253.46 412.706 260.149C414.585 266.728 418.998 272.294 424.976 275.622C430.955 278.951 438.01 279.771 444.592 277.902ZM417.436 261.367L421.65 261.342C422.513 261.366 422.594 261.415 422.683 261.495C423.329 262.02 424.096 262.754 424.822 263.465C424.895 263.755 425.428 264.102 425.589 264.336C425.75 264.57 424.944 266.556 424.621 267.46C424.21 268.179 423.69 268.83 423.079 269.39C420.55 267.236 418.608 264.476 417.436 261.367ZM443.582 273.866L443.736 273.245C443.79 273.344 443.817 273.455 443.816 273.568C443.768 273.374 444.18 272.962 444.422 272.559L445.156 271.38C445.483 270.809 445.6 270.142 445.488 269.494C445.376 268.846 445.041 268.257 444.542 267.828L444.929 267.732C445.436 267.589 445.903 267.335 446.297 266.987C446.691 266.638 447.002 266.206 447.205 265.721C447.439 265.14 447.541 264.514 447.503 263.889C447.465 263.263 447.289 262.654 446.987 262.105L446.93 261.879C447.38 261.677 447.815 261.443 448.23 261.177L448.94 260.725L450.837 259.53C451.407 259.195 451.886 258.725 452.23 258.16C452.573 257.595 452.771 256.953 452.806 256.293C452.827 255.74 452.711 255.191 452.467 254.695C452.223 254.199 451.859 253.772 451.409 253.452C449.765 252.379 447.965 251.568 446.073 251.047C444.178 250.374 442.16 250.119 440.156 250.297L434.732 251.654C434.087 251.849 433.403 251.877 432.744 251.736C432.085 251.595 431.472 251.289 430.963 250.847C430.742 250.71 430.557 250.522 430.424 250.299C430.29 250.076 430.212 249.824 430.196 249.564C430.161 249.137 430.23 248.708 430.397 248.313C431.678 246.598 432.304 244.483 432.164 242.348C432.202 240.725 432.347 239.108 432.599 237.505C432.736 236.407 432.849 235.349 432.914 234.51C433.977 234.16 435.088 233.975 436.207 233.961C436.55 236.424 437.723 238.696 439.533 240.401C440.94 241.413 441.951 242.882 442.391 244.558C442.582 246.204 443.348 247.73 444.555 248.866C445.762 250.002 447.332 250.674 448.987 250.764C453.164 252.106 457.06 254.201 460.482 256.945C459.53 261.064 457.442 264.833 454.454 267.825C451.467 270.816 447.7 272.909 443.582 273.866ZM460.328 248.236C460.644 249.494 460.828 250.782 460.877 252.078C457.433 249.569 453.551 247.725 449.43 246.639C447.316 246.414 446.839 245.744 446.298 243.581C445.616 240.884 443.978 238.526 441.688 236.946C440.862 235.665 440.334 234.214 440.146 232.701C444.741 232.744 449.198 234.283 452.84 237.087C456.482 239.89 459.11 243.804 460.328 248.236ZM428.555 235.326C428.676 235.81 428.426 236.456 428.362 237.021C428.042 238.874 427.881 240.751 427.878 242.631C427.899 243.789 427.53 244.921 426.829 245.844C425.974 247.236 425.691 248.905 426.039 250.501C426.185 251.262 426.487 251.986 426.924 252.626C427.362 253.266 427.926 253.809 428.582 254.222C429.597 254.98 430.775 255.492 432.022 255.716C433.269 255.94 434.551 255.87 435.766 255.512L440.9 254.228C443.474 254.282 445.997 254.957 448.253 256.196L446.865 257.093L446.058 257.569C445.717 257.84 445.315 258.023 444.888 258.102L444.476 257.69C444.121 257.298 443.633 257.051 443.106 256.999C442.579 256.947 442.052 257.093 441.627 257.408C441.212 257.745 440.936 258.223 440.853 258.75C440.77 259.278 440.884 259.818 441.175 260.266L441.32 260.847C441.918 261.727 442.677 262.978 443.161 263.817C442.315 263.991 441.533 264.394 440.9 264.982C440.266 265.57 439.806 266.32 439.57 267.151C439.505 267.742 439.599 268.34 439.843 268.882C440.088 269.425 440.473 269.891 440.959 270.234C440.664 270.67 440.399 271.126 440.168 271.599C439.96 272.027 439.847 272.496 439.836 272.972C439.825 273.448 439.916 273.921 440.104 274.359C435.425 274.824 430.715 273.847 426.607 271.56C427.435 270.719 428.107 269.738 428.592 268.662C429.082 267.346 429.478 265.998 429.778 264.626C429.851 263.808 429.714 262.986 429.383 262.235C429.051 261.484 428.534 260.829 427.881 260.332C427.049 259.477 426.161 258.67 425.378 258.008C424.325 257.199 423.004 256.818 421.681 256.943C420.922 256.927 418.275 257.04 416.41 257.129C415.904 252.682 416.804 248.188 418.982 244.278C421.16 240.367 424.507 237.237 428.555 235.326Z" fill="#C0C0C0"/>
<ellipse cx="33.7125" cy="370.827" rx="26.7379" ry="26.894" transform="rotate(-47.6415 33.7125 370.827)" fill="#D9D9D9"/>
<path d="M71.5604 349.605C71.1319 348.987 70.4763 348.563 69.7364 348.426C68.9965 348.289 68.2326 348.45 67.6111 348.874L1.22844 394.48C0.609118 394.908 0.184542 395.563 0.0474911 396.303C-0.0895593 397.043 0.072057 397.808 0.497027 398.429C0.925519 399.046 1.58073 399.47 2.31994 399.607C3.05915 399.743 3.82247 399.583 4.44366 399.16L15.9796 391.162C17.4061 392.401 18.9449 393.477 20.5958 394.391L46.8205 376.377C47.2874 376.08 47.8515 375.976 48.3939 376.087C48.9363 376.197 49.4146 376.514 49.728 376.97C50.0414 377.426 50.1655 377.986 50.0741 378.531C49.9827 379.077 49.683 379.566 49.238 379.894L25.3352 396.487C26.4689 396.859 27.6223 397.149 28.7955 397.358C49.2851 401.125 66.1668 381.316 59.1818 361.7L59.1263 361.546L70.7483 353.537C71.376 353.122 71.814 352.476 71.9666 351.739C72.1193 351.003 71.9716 350.235 71.5604 349.605ZM17.458 359.852C17.6889 359.687 17.9504 359.569 18.2271 359.506C18.5039 359.443 18.7905 359.436 19.0701 359.485C19.3497 359.535 19.6168 359.639 19.8556 359.792C20.0944 359.946 20.3003 360.145 20.4611 360.379C20.622 360.613 20.7346 360.876 20.7924 361.154C20.8502 361.432 20.852 361.718 20.7977 361.997C20.7434 362.275 20.6341 362.54 20.4763 362.776C20.3184 363.011 20.1151 363.213 19.8782 363.369L6.60111 372.491C6.86818 375.875 7.78132 379.179 9.28676 382.224L53.2731 352.008C38.8079 337.051 13.5705 343.342 7.84209 363.333C7.61133 364.14 7.41865 364.956 7.26407 365.781L7.02074 367.095L17.458 359.852Z" fill="#CDCDCD"/>
<circle cx="555.137" cy="139.49" r="25.4999" transform="rotate(-121.019 555.137 139.49)" fill="#D9D9D9"/>
<path d="M551.59 114.23C552.117 114.621 552.647 115.008 553.18 115.389L553.204 115.405C554.303 116.193 555.561 117.097 556.851 118.133C559.454 120.216 562.269 122.888 564.409 126.448C566.792 130.41 567.556 134.087 567.853 137.223C567.968 138.433 568.014 139.593 568.055 140.612L568.085 141.404C568.143 142.648 568.217 143.597 568.403 144.372C569.154 147.395 570.24 150.325 571.641 153.107C572.193 154.213 572.795 155.294 573.445 156.345L573.553 156.51L573.581 156.556L573.798 156.877C577.388 153.02 579.696 148.145 580.403 142.923C581.111 137.701 580.184 132.388 577.75 127.713C575.316 123.039 571.495 119.234 566.811 116.819C562.126 114.405 556.809 113.5 551.59 114.23ZM556.118 164.973L556.388 163.927L556.393 163.916L556.407 163.85L556.471 163.556C556.524 163.289 556.602 162.882 556.675 162.362C556.823 161.321 556.964 159.823 556.928 158.032C556.865 154.443 556.104 149.753 553.369 145.206C551.564 142.203 549.32 140.422 547.13 139.085C546.257 138.554 545.419 138.105 544.586 137.66L543.869 137.273C542.846 136.721 541.781 136.118 540.905 135.383C538.636 133.481 536.596 131.322 534.826 128.949C534.239 128.16 533.695 127.34 533.194 126.494C530.85 130.453 529.621 134.973 529.637 139.574C529.653 144.175 530.914 148.686 533.285 152.629C535.637 156.542 538.997 159.752 543.014 161.924C547.03 164.095 551.556 165.148 556.118 164.973Z" fill="#D3D3D3"/>
<path opacity="0.5" d="M546.922 115.344C545.231 115.915 543.589 116.679 541.998 117.636C539.615 119.066 537.481 120.877 535.682 122.996L536.291 124.198L536.306 124.222L536.366 124.337C536.835 125.144 537.347 125.925 537.901 126.676C539.492 128.808 541.327 130.747 543.369 132.454C543.911 132.91 544.659 133.353 545.687 133.91L546.337 134.258C547.182 134.708 548.146 135.223 549.121 135.82C551.653 137.363 554.427 139.542 556.646 143.233C559.824 148.517 560.682 153.919 560.754 157.962C560.789 159.612 560.692 161.263 560.461 162.898C560.388 163.433 560.296 163.964 560.185 164.493C564.114 163.689 567.801 161.979 570.953 159.499L570.403 158.684L570.389 158.66L570.351 158.603C570.142 158.283 569.94 157.957 569.747 157.627C569.353 156.962 568.814 156.007 568.22 154.817C567.033 152.445 565.61 149.105 564.687 145.269C564.404 144.1 564.321 142.814 564.265 141.574L564.229 140.706C564.189 139.7 564.15 138.68 564.046 137.582C563.785 134.822 563.132 131.752 561.129 128.421C559.312 125.399 556.88 123.056 554.459 121.119C553.25 120.148 552.06 119.292 550.948 118.497L550.909 118.467C549.839 117.697 548.797 116.948 547.969 116.239L546.922 115.344Z" fill="#D3D3D3"/>
</svg>
