<svg width="52" height="52" viewBox="0 0 52 52" fill="none" xmlns="http://www.w3.org/2000/svg">
<ellipse cx="25.4629" cy="25.8521" rx="23.1103" ry="23.2063" transform="rotate(0.362653 25.4629 25.8521)" fill="#CDCDCD"/>
<path d="M8.44615 10.2792C4.61075 14.5564 2.49282 20.1012 2.50002 25.8464C2.50002 27.6288 2.69978 29.3671 3.07855 31.0354M8.44615 10.2792C11.3029 7.08751 14.9823 4.74292 19.0818 3.50185C23.1814 2.26077 27.5432 2.17101 31.6903 3.24236C35.8374 4.31372 39.6101 6.50494 42.5958 9.57639C45.5814 12.6478 47.6651 16.4812 48.6188 20.6573M8.44615 10.2792H25.8487M3.07855 31.0354H28.443M3.07855 31.0354C3.95943 34.8938 5.80645 38.465 8.44615 41.4135M48.6188 20.6573C49.7709 25.7051 49.2127 30.9928 47.0321 35.6887C44.8515 40.3847 41.1721 44.2227 36.5725 46.5992C31.9729 48.9757 26.7139 49.756 21.6225 48.8173C16.5311 47.8786 11.896 45.2741 8.44615 41.4135M48.6188 20.6573H33.6316M8.44615 41.4135H23.2544M25.8487 20.6573H20.6601" stroke="#C0C0C0" stroke-width="5" stroke-linecap="round" stroke-linejoin="round"/>
</svg>
