<svg width="71" height="71" viewBox="0 0 71 71" fill="none" xmlns="http://www.w3.org/2000/svg">
<circle cx="35.4681" cy="35.4681" r="35" transform="rotate(-90.7714 35.4681 35.4681)" fill="#D9D9D9"/>
<path fill-rule="evenodd" clip-rule="evenodd" d="M11.3067 60.7852C7.9342 57.5756 5.23807 53.7237 3.37717 49.4563C1.51627 45.1888 0.52822 40.5921 0.471226 35.937C0.260175 20.2629 10.3812 6.86833 24.5194 2.21535L24.8276 25.1088C24.8401 26.0369 25.2208 26.922 25.886 27.5694C26.5511 28.2169 27.4463 28.5736 28.3744 28.5611C29.3026 28.5486 30.1878 28.1679 30.8353 27.5028C31.4828 26.8377 31.8395 25.9426 31.827 25.0145L31.4995 0.693326C32.6528 0.561125 33.8186 0.487096 34.9968 0.471231C54.3256 0.21097 70.2046 15.667 70.4648 34.9945C70.5332 39.6495 69.6693 44.2711 67.9239 48.5871C66.1786 52.9031 63.5872 56.8263 60.3023 60.1255L60.0129 38.6353C60.0004 37.7072 59.6197 36.8221 58.9546 36.1746C58.2894 35.5272 57.3943 35.1705 56.4661 35.183C55.5379 35.1955 54.6527 35.5762 54.0053 36.2413C53.3578 36.9064 53.0011 37.8015 53.0135 38.7296L53.3746 65.5424C51.1782 66.8512 48.845 67.9155 46.4167 68.7161L45.9199 31.8249C45.9075 30.8968 45.5268 30.0117 44.8616 29.3642C44.1964 28.7168 43.3013 28.3601 42.3731 28.3726C41.445 28.3851 40.5598 28.7658 39.9123 29.4309C39.2648 30.096 38.9081 30.9911 38.9206 31.9192L39.4365 70.2381C32.1469 71.0803 24.7773 69.6007 18.3777 66.0101L17.9696 35.7014C17.9571 34.7732 17.5764 33.8881 16.9113 33.2407C16.2461 32.5932 15.351 32.2365 14.4228 32.249C13.4947 32.2615 12.6095 32.6422 11.962 33.3073C11.3145 33.9724 10.9578 34.8675 10.9703 35.7956L11.3067 60.7852ZM25.0632 42.606C25.0757 43.5341 25.4564 44.4193 26.1216 45.0667C26.7867 45.7141 27.6819 46.0708 28.61 46.0583C29.5382 46.0458 30.4234 45.6652 31.0709 45C31.7184 44.3349 32.0751 43.4399 32.0626 42.5118L31.9683 35.5129C31.9559 34.5847 31.5751 33.6996 30.91 33.0522C30.2448 32.4047 29.3497 32.048 28.4215 32.0605C27.4934 32.073 26.6082 32.4537 25.9607 33.1188C25.3132 33.7839 24.9565 34.679 24.969 35.6071L25.0632 42.606ZM31.1487 50.5463C31.8136 51.1937 32.1942 52.0786 32.2067 53.0066C32.2191 53.9345 31.8626 54.8294 31.2153 55.4945C30.5679 56.16 29.6827 56.5445 28.7544 56.5574C28.2947 56.5637 27.8383 56.4795 27.4112 56.3094C26.9841 56.1394 26.5946 55.8869 26.2651 55.5664C25.9355 55.2459 25.6724 54.8636 25.4906 54.4413C25.3088 54.0191 25.212 53.5652 25.2056 53.1056C25.1928 52.1773 25.5493 51.2819 26.1967 50.6164C26.5173 50.2867 26.8998 50.0234 27.3223 49.8416C27.7448 49.6597 28.199 49.563 28.6589 49.5568C29.1188 49.5506 29.5754 49.6351 30.0026 49.8055C30.4299 49.9759 30.8193 50.2288 31.1487 50.5498L31.1487 50.5463ZM44.7899 23.8109C45.1199 23.4836 45.3813 23.0939 45.5589 22.6645C45.7366 22.2351 45.827 21.7746 45.8247 21.3098C45.8225 20.8451 45.7278 20.3855 45.546 19.9578C45.3643 19.5301 45.0991 19.1429 44.7661 18.8188C44.4331 18.4946 44.0389 18.24 43.6064 18.0699C43.1739 17.8997 42.7119 17.8174 42.2473 17.8277C41.7826 17.8379 41.3247 17.9407 40.9002 18.1298C40.4757 18.319 40.0931 18.5908 39.7748 18.9293C39.1269 19.5944 38.7663 20.4895 38.7785 21.4178C38.7907 22.3461 39.1711 23.2316 39.8362 23.8794C40.5012 24.5272 41.3964 24.8843 42.3248 24.8721C43.2531 24.8599 44.1386 24.4795 44.7865 23.8145L44.7899 23.8109Z" fill="#CDCDCD"/>
</svg>
