<svg width="44" height="44" viewBox="0 0 44 44" fill="none" xmlns="http://www.w3.org/2000/svg">
<ellipse cx="21.9706" cy="21.9673" rx="17" ry="16" transform="rotate(-102.927 21.9706 21.9673)" fill="#D9D9D9"/>
<path d="M29.1815 9.21686C27.8586 10.0095 27.1119 11.5917 27.477 13.182L27.8871 14.9689L22.5265 16.1992C22.0526 16.308 21.6413 16.6006 21.3831 17.0126C21.1249 17.4246 21.041 17.9223 21.1497 18.3962L23.6105 29.1175L20.0367 29.9377L19.2165 26.364C19.1077 25.8901 18.8151 25.4788 18.4031 25.2206C17.9911 24.9624 17.4934 24.8785 17.0195 24.9872L13.4457 25.8075L12.6255 22.2337C12.408 21.2859 11.8228 20.4633 10.9988 19.947C10.1747 19.4306 9.17932 19.2627 8.2315 19.4803L7.49888 19.6484C7.8701 17.3126 8.80179 15.1016 10.2142 13.2045C11.6266 11.3075 13.4777 9.78097 15.6089 8.75561C17.7402 7.73026 20.0882 7.23662 22.4519 7.31694C24.8157 7.39727 27.1247 8.04918 29.1815 9.21686ZM36.55 20.5045C37.2944 27.7636 32.5414 34.5916 25.251 36.2649C24.1431 36.5192 23.0382 36.6223 21.9664 36.6238L28.561 26.1002L30.3478 25.6901C31.2957 25.4725 32.1182 24.8874 32.6346 24.0634C33.151 23.2393 33.3189 22.2439 33.1013 21.2961M4.10127 26.0712C4.63985 28.4178 5.63535 30.6353 7.03093 32.5971C8.4265 34.5589 10.1948 36.2267 12.2349 37.5051C16.3551 40.087 21.3322 40.9264 26.0712 39.8387C30.8103 38.751 34.9232 35.8252 37.5051 31.705C38.7835 29.6649 39.6476 27.393 40.048 25.019C40.4484 22.6449 40.3773 20.2153 39.8387 17.8687C38.751 13.1296 35.8252 9.01675 31.705 6.43486C27.5849 3.85296 22.6078 3.01354 17.8687 4.10127C15.5222 4.63985 13.3047 5.63535 11.3428 7.03093C9.38102 8.4265 7.71328 10.1948 6.43486 12.2349C5.15643 14.275 4.29235 16.547 3.89195 18.921C3.49156 21.295 3.56268 23.7247 4.10127 26.0712Z" fill="#CDCDCD"/>
</svg>
