<svg width="38" height="39" viewBox="0 0 38 39" fill="none" xmlns="http://www.w3.org/2000/svg">
<ellipse cx="19.7471" cy="17.7828" rx="13.6676" ry="13.7474" transform="rotate(21.3722 19.7471 17.7828)" fill="#D9D9D9"/>
<path d="M36.8038 31.9618C37.0204 31.6441 37.1026 31.2536 37.0326 30.8754C36.9625 30.4972 36.7459 30.1621 36.4298 29.9431L2.51107 6.61044C2.19342 6.39322 1.80279 6.31061 1.42453 6.38068C1.04627 6.45074 0.711135 6.66778 0.492359 6.98436C0.276138 7.3019 0.194089 7.69209 0.264079 8.06995C0.334068 8.4478 0.550426 8.78272 0.866033 9.00175L6.79511 13.0432C6.4651 13.9507 6.23313 14.8822 6.0992 15.8374L19.4974 25.0556C19.7246 25.2241 19.8775 25.4743 19.9241 25.7534C19.9706 26.0325 19.907 26.3187 19.7468 26.5518C19.5865 26.7849 19.3421 26.9466 19.065 27.0028C18.7878 27.0591 18.4997 27.0055 18.2613 26.8533L5.96658 18.483C5.99641 19.0923 6.06901 19.6959 6.18439 20.2939C8.1373 30.7626 20.6819 35.1931 28.7653 28.2681L28.8285 28.2135L34.7787 32.2939C35.0916 32.5176 35.4802 32.6083 35.8596 32.5464C36.2391 32.4844 36.5783 32.2734 36.8038 31.9618ZM22.0089 8.01673C22.1299 8.09669 22.2338 8.19999 22.3145 8.32058C22.3952 8.44117 22.451 8.57664 22.4788 8.71907C22.5066 8.8615 22.5057 9.00803 22.4762 9.1501C22.4467 9.29217 22.3892 9.42692 22.3071 9.54649C22.2249 9.66606 22.1198 9.76804 21.9978 9.84647C21.8758 9.9249 21.7394 9.97821 21.5966 10.0033C21.4538 10.0284 21.3074 10.0247 21.166 9.9925C21.0245 9.9603 20.891 9.90023 20.773 9.81578L13.9892 5.14899C12.4229 5.89604 11.0133 6.93666 9.83556 8.21265L32.3089 23.674C36.7994 14.032 29.1764 3.13899 18.587 4.06475C18.1595 4.1024 17.7347 4.15984 17.3127 4.23709L16.6411 4.36148L22.0089 8.01673Z" fill="#CDCDCD"/>
</svg>
