<svg width="77" height="74" viewBox="0 0 77 74" fill="none" xmlns="http://www.w3.org/2000/svg">
<ellipse cx="38.308" cy="36.865" rx="29.4751" ry="28.2208" transform="rotate(165.955 38.308 36.865)" fill="#CDCDCD"/>
<path d="M45.5846 65.9533C53.6176 64.2104 60.6305 59.3509 65.0836 52.4418C69.5367 45.5327 71.0659 37.1388 69.3354 29.1032C67.0784 21.1993 61.7771 14.5141 54.5953 10.5155C47.4136 6.51699 38.9386 5.53196 31.0312 7.77674C22.9983 9.51958 15.9853 14.3791 11.5322 21.2882C7.07913 28.1973 5.54995 36.5912 7.28044 44.6268C9.53737 52.5307 14.8387 59.2159 22.0205 63.2145C29.2022 67.213 37.6772 68.198 45.5846 65.9533ZM12.9628 46.0901L18.0243 46.0603C19.0618 46.0892 19.1588 46.1474 19.2655 46.2443C20.0413 46.8745 20.9626 47.7567 21.8354 48.6099C21.9227 48.9589 22.5628 49.3758 22.7567 49.6569C22.9507 49.9381 21.9814 52.3236 21.5937 53.4096C21.1004 54.2735 20.4757 55.0555 19.742 55.7274C16.7034 53.1402 14.3709 49.8243 12.9628 46.0901ZM44.3718 61.1052L44.5559 60.3586C44.6206 60.4775 44.654 60.611 44.653 60.7464C44.5948 60.5137 45.0892 60.0191 45.38 59.5342L46.2622 58.1184C46.6544 57.4325 46.7954 56.6312 46.6608 55.8526C46.5262 55.0739 46.1244 54.3665 45.5246 53.8521L45.99 53.7357C46.5981 53.5648 47.1597 53.2589 47.6331 52.8407C48.1064 52.4226 48.4794 51.9031 48.7241 51.3208C49.005 50.6226 49.1272 49.8706 49.0818 49.1193C49.0364 48.368 48.8246 47.6362 48.4616 46.9769L48.3937 46.7054C48.9341 46.463 49.4559 46.181 49.9547 45.8616L50.8079 45.3184L53.0863 43.883C53.7717 43.4813 54.3467 42.9158 54.7595 42.2371C55.1724 41.5583 55.4102 40.7877 55.4517 39.9944C55.4774 39.3309 55.3375 38.6715 55.0445 38.0756C54.7515 37.4798 54.3148 36.9663 53.7737 36.5815C51.7994 35.2928 49.6371 34.3184 47.3639 33.6929C45.0871 32.8848 42.6627 32.5776 40.2563 32.7922L33.7405 34.4222C32.9653 34.6559 32.1435 34.6897 31.3517 34.5203C30.5599 34.3508 29.8238 33.9837 29.2121 33.4532C28.9467 33.2883 28.7246 33.0624 28.5644 32.7942C28.4041 32.526 28.3103 32.2234 28.2907 31.9116C28.2493 31.3984 28.3324 30.8828 28.5329 30.4086C30.0711 28.3489 30.8238 25.8078 30.6554 23.2426C30.7005 21.2939 30.8751 19.3503 31.1781 17.4247C31.3427 16.1059 31.4783 14.8357 31.5557 13.8272C32.8331 13.4069 34.1672 13.1844 35.5118 13.1673C35.9236 16.1263 37.3334 18.8559 39.5079 20.9045C41.1977 22.1193 42.4117 23.8848 42.9412 25.8976C43.1696 27.8755 44.0903 29.7088 45.5403 31.0732C46.9903 32.4376 48.8762 33.2452 50.8643 33.353C55.8818 34.9647 60.5619 37.4813 64.6731 40.7784C63.5293 45.7263 61.0205 50.2542 57.4318 53.8475C53.843 57.4407 49.3183 59.9552 44.3718 61.1052ZM64.4873 30.316C64.8674 31.8273 65.0886 33.3741 65.1474 34.9314C61.0098 31.9179 56.3466 29.7023 51.3968 28.398C48.8563 28.1269 48.2841 27.3222 47.6341 24.7236C46.8145 21.4839 44.8467 18.652 42.0962 16.754C41.1034 15.2147 40.4701 13.4715 40.2434 11.6539C45.7641 11.7054 51.1175 13.555 55.4924 16.9226C59.8673 20.2903 63.0251 24.9922 64.4873 30.316ZM26.3198 14.8074C26.4653 15.3891 26.1648 16.1649 26.0874 16.8437C25.7038 19.0696 25.5095 21.324 25.5066 23.5828C25.5319 24.9742 25.0881 26.3337 24.2466 27.4422C23.2192 29.1145 22.879 31.1195 23.2972 33.0372C23.4731 33.9517 23.835 34.8204 24.3605 35.5893C24.886 36.3582 25.564 37.0108 26.3523 37.5068C27.5714 38.4179 28.9862 39.0323 30.4842 39.3014C31.9822 39.5705 33.5223 39.4868 34.9824 39.0569L41.1491 37.5142C44.2412 37.5791 47.2719 38.3903 49.9829 39.8788L48.3153 40.9554L47.3457 41.5276C46.9364 41.8527 46.4537 42.0725 45.9398 42.1678L45.4452 41.6734C45.0188 41.2017 44.432 40.9056 43.7992 40.843C43.1664 40.7803 42.533 40.9556 42.0223 41.3345C41.5241 41.7388 41.193 42.3131 41.0929 42.9468C40.9927 43.5805 41.1306 44.2289 41.4798 44.7671L41.6545 45.4652C42.3722 46.5221 43.2839 48.0249 43.8658 49.0332C42.8492 49.2427 41.9096 49.7268 41.1489 50.4329C40.3883 51.1391 39.8358 52.0403 39.5515 53.0385C39.4733 53.7486 39.5868 54.4667 39.8802 55.1181C40.1736 55.7694 40.6362 56.3303 41.2198 56.7423C40.8654 57.2658 40.548 57.8134 40.2698 58.3811C40.0204 58.8962 39.8844 59.4587 39.8711 60.0309C39.8578 60.603 39.9675 61.1713 40.1927 61.6973C34.572 62.2554 28.915 61.0823 23.9798 58.3351C24.9742 57.3247 25.7816 56.146 26.3646 54.8537C26.9525 53.2729 27.4286 51.6528 27.7892 50.0053C27.876 49.0229 27.7124 48.0346 27.3138 47.1326C26.9152 46.2306 26.2945 45.4443 25.5098 44.8471C24.5109 43.8194 23.4442 42.8499 22.5035 42.055C21.2378 41.0828 19.6511 40.6258 18.0623 40.7757C17.1508 40.7564 13.9704 40.8927 11.7306 40.9997C11.1228 35.6571 12.203 30.2584 14.8195 25.5609C17.436 20.8635 21.4575 17.1031 26.3198 14.8074Z" fill="#C0C0C0"/>
</svg>
