<svg width="94" height="95" viewBox="0 0 94 95" fill="none" xmlns="http://www.w3.org/2000/svg">
<circle cx="46.9442" cy="47.5" r="21" transform="rotate(60.8982 46.9442 47.5)" fill="#BCD7FF"/>
<path d="M32.208 32.1791C38.2896 26.3065 47.5481 24.3927 55.7031 28.0681C59.2425 29.6623 62.276 32.1992 64.4739 35.4032C66.6719 38.6072 67.9503 42.3558 68.1703 46.2418C66.218 45.3951 64.1098 44.8209 62.1268 44.4085C56.3675 43.2156 50.0757 43.1134 47.4276 43.0695L46.7105 43.058C44.041 43.0141 38.4756 42.9159 33.5802 41.9C30.9874 41.3627 29.0118 40.6496 27.8064 39.8473C27.6245 39.7271 27.4502 39.5959 27.2845 39.4542C27.8828 37.9978 28.6376 36.6106 29.5354 35.3174C28.6393 35.272 27.6708 35.3616 26.7782 35.6275C25.057 36.1377 24.1475 37.0916 24.0853 38.4274C24.0219 39.8347 24.7076 40.9971 26.2857 42.0454C27.9134 43.1297 30.2873 43.9287 33.0016 44.4935C38.2008 45.5723 44.0309 45.669 46.6655 45.7127L47.274 45.7239C49.8951 45.7674 56.0417 45.8685 61.5999 47.0252C64.482 47.6228 67.3764 48.5376 69.5633 49.9927C71.803 51.4814 73.4836 53.6806 73.3429 56.7287C73.1839 60.1834 70.5824 62.0308 68.0668 62.7655C66.0005 63.3695 63.6093 63.3673 61.6883 62.8172C55.6062 68.6953 46.3453 70.61 38.1871 66.9332C34.6477 65.3392 31.6143 62.8026 29.4162 59.5989C27.2182 56.3952 25.9395 52.6469 25.7191 48.7611C27.6722 49.6062 29.7812 50.1827 31.765 50.5935C37.5243 51.7864 43.8177 51.8893 46.4642 51.9325L47.1829 51.9448C49.8508 51.9879 55.4162 52.0861 60.3116 53.102C62.9028 53.6385 64.88 54.3524 66.0854 55.1547C66.3019 55.3004 66.4754 55.4312 66.6057 55.547C66.512 55.775 66.4141 56.0023 66.3119 56.229C65.757 57.4545 65.1089 58.5996 64.3675 59.6643C65.2483 59.7048 66.2017 59.6142 67.0852 59.3558C68.8349 58.8468 69.7437 57.8946 69.8042 56.5755C69.8699 55.1673 69.1818 54.0058 67.6004 52.9521C65.9687 51.868 63.5916 51.0675 60.8724 50.5005C55.6516 49.4139 49.7945 49.3167 47.171 49.2741L46.5625 49.2629C43.9335 49.2197 37.8122 49.1184 32.2758 47.9695C29.3985 47.3741 26.5057 46.46 24.3221 45.0063C22.0856 43.5191 20.4073 41.319 20.5473 38.2726C20.7053 34.833 23.268 32.9681 25.7792 32.2217C27.8586 31.6061 30.2681 31.6107 32.208 32.1791Z" fill="#85ABE3"/>
</svg>
