<svg width="65" height="65" viewBox="0 0 65 65" fill="none" xmlns="http://www.w3.org/2000/svg">
<circle cx="32.4929" cy="32.4925" r="25.4999" transform="rotate(109.291 32.4929 32.4925)" fill="#D9D9D9"/>
<path d="M15.3187 51.3528C15.2839 50.6978 15.2428 50.0431 15.1957 49.3889L15.192 49.3606C15.0969 48.0116 14.9893 46.4664 14.9632 44.812C14.9034 41.4788 15.1621 37.606 16.5344 33.6854C18.0617 29.3218 20.4024 26.3858 22.626 24.1545C23.4841 23.2931 24.3473 22.5173 25.1051 21.8343L25.6953 21.306C26.6159 20.4665 27.2992 19.8033 27.7765 19.1653C29.6234 16.657 31.1843 13.9502 32.4302 11.0953C32.9288 9.96394 33.3758 8.81054 33.7697 7.63863L33.8274 7.45078L33.8451 7.40024L33.9539 7.02766C28.6925 6.72866 23.4677 8.06626 18.9973 10.8567C14.5269 13.6471 11.0302 17.7534 8.98786 22.6113C6.94548 27.4693 6.45758 32.8405 7.59118 37.987C8.72478 43.1334 11.4243 47.8026 15.3187 51.3528ZM51.4748 15.4622L50.4977 15.9226L50.4856 15.9264L50.4262 15.957L50.1588 16.0957C49.919 16.2252 49.5571 16.4254 49.1095 16.701C48.2141 17.2522 46.9716 18.1005 45.6162 19.2714C42.8949 21.6122 39.772 25.193 38.0189 30.2015C36.8614 33.5085 36.9234 36.3723 37.2936 38.9118C37.4422 39.9229 37.6323 40.8539 37.8217 41.7794L37.9823 42.5785C38.2105 43.7174 38.4263 44.9223 38.4205 46.0658C38.4057 49.0264 38.0471 51.9752 37.3521 54.8531C37.1192 55.8085 36.8362 56.7511 36.5043 57.6768C41.048 56.9521 45.311 55.0115 48.8414 52.0607C52.3718 49.1099 55.038 45.2588 56.5574 40.9158C58.0665 36.6066 58.3911 31.9713 57.497 27.4939C56.603 23.0165 54.5231 18.8613 51.4748 15.4622Z" fill="#CDCDCD"/>
<path opacity="0.5" d="M19.1569 54.2336C20.6768 55.1708 22.3128 55.9461 24.0649 56.5594C26.6879 57.4799 29.4437 57.9654 32.2234 57.9966L32.7588 56.7602L32.768 56.7338L32.8182 56.6135C33.1402 55.7379 33.4139 54.8452 33.638 53.9395C34.2626 51.353 34.5828 48.7024 34.5924 46.0416C34.5973 45.3328 34.4601 44.4743 34.2321 43.3273L34.0848 42.6057C33.8916 41.6681 33.6721 40.5971 33.5092 39.4648C33.0796 36.5318 32.9847 33.0053 34.4076 28.9403C36.4446 23.1206 40.0528 19.01 43.1181 16.3735C44.3655 15.2917 45.6984 14.3127 47.1038 13.446C47.5619 13.161 48.0299 12.8923 48.507 12.6403C45.3795 10.1298 41.709 8.38434 37.7879 7.54298L37.5117 8.48644L37.5024 8.51291L37.4821 8.57874C37.3696 8.94443 37.248 9.30724 37.1174 9.66685C36.8573 10.3944 36.4662 11.4192 35.9295 12.6362C34.8633 15.0647 33.2014 18.2923 30.8388 21.453C30.1204 22.4172 29.1837 23.3025 28.2648 24.1371L27.6206 24.7194C26.8718 25.3921 26.1116 26.0743 25.333 26.8554C23.3762 28.8181 21.4305 31.2818 20.1467 34.9498C18.9816 38.2784 18.7321 41.6465 18.7874 44.7457C18.8118 46.2969 18.9133 47.7589 19.0115 49.1225L19.0132 49.1717C19.104 50.4868 19.1938 51.7664 19.1766 52.8572L19.1569 54.2336Z" fill="#CDCDCD"/>
</svg>
