<svg width="593" height="569" viewBox="0 0 593 569" fill="none" xmlns="http://www.w3.org/2000/svg">
<circle cx="286.5" cy="284.5" r="53.5" fill="#D9D9D9"/>
<circle cx="285.5" cy="284.5" r="66" stroke="#E5C9D7"/>
<circle cx="285.5" cy="284.5" r="89" stroke="#83A6CE"/>
<circle cx="286.5" cy="284.5" r="133" stroke="#C48CB3"/>
<circle cx="286.5" cy="284.5" r="200" stroke="#83A6CE"/>
<circle cx="286.5" cy="284.5" r="284" stroke="#D0D0D0"/>
<circle cx="286.5" cy="284.5" r="284" stroke="#E5C9D7"/>
<circle cx="218" cy="227" r="4" fill="#C48CB3"/>
<circle cx="467" cy="65" r="4" fill="#ACCAEB"/>
<circle cx="318" cy="482" r="4" fill="#CD9CB5"/>
<circle cx="334.5" cy="327.5" r="7.5" fill="#83A6CE"/>
<circle cx="153.5" cy="277.5" r="7.5" fill="#667E98"/>
<circle cx="116.5" cy="391.5" r="7.5" fill="#E5C9D7"/>
<circle cx="6" cy="243" r="6" fill="#83A6CE"/>
<circle cx="247" cy="364" r="5" fill="#E5C9D7"/>
<circle cx="191" cy="552" r="5" fill="#B0D5FF"/>
<circle cx="451.5" cy="515.5" r="8.5" fill="#83A6CE"/>
<circle cx="332" cy="159" r="5" fill="#ACCAEB"/>
<circle cx="364.5" cy="392.5" r="6.5" fill="#83A6CE"/>
<circle cx="244.5" cy="90.5" r="6.5" fill="#C48CB3"/>
<circle cx="167.5" cy="26.5" r="6.5" fill="#8BACCF"/>
<circle cx="464" cy="193" r="8" fill="#E2B1D3"/>
<ellipse cx="566.256" cy="210.352" rx="23.1103" ry="23.2063" transform="rotate(0.362653 566.256 210.352)" fill="#CDCDCD"/>
<path d="M549.239 194.779C545.404 199.056 543.286 204.601 543.293 210.346C543.293 212.129 543.493 213.867 543.872 215.535M549.239 194.779C552.096 191.588 555.775 189.243 559.875 188.002C563.974 186.761 568.336 186.671 572.483 187.742C576.63 188.814 580.403 191.005 583.389 194.076C586.374 197.148 588.458 200.981 589.412 205.157M549.239 194.779H566.642M543.872 215.535H569.236M543.872 215.535C544.752 219.394 546.599 222.965 549.239 225.914M589.412 205.157C590.564 210.205 590.006 215.493 587.825 220.189C585.644 224.885 581.965 228.723 577.365 231.099C572.766 233.476 567.507 234.256 562.415 233.317C557.324 232.379 552.689 229.774 549.239 225.914M589.412 205.157H574.425M549.239 225.914H564.047M566.642 205.157H561.453" stroke="#C0C0C0" stroke-width="5" stroke-linecap="round" stroke-linejoin="round"/>
<ellipse cx="440.983" cy="421.999" rx="29.4751" ry="28.2208" transform="rotate(165.955 440.983 421.999)" fill="#CDCDCD"/>
<path d="M448.26 451.087C456.293 449.344 463.306 444.484 467.759 437.575C472.212 430.666 473.741 422.272 472.011 414.237C469.754 406.333 464.452 399.648 457.271 395.649C450.089 391.65 441.614 390.665 433.706 392.91C425.673 394.653 418.661 399.513 414.207 406.422C409.754 413.331 408.225 421.725 409.956 429.76C412.213 437.664 417.514 444.349 424.696 448.348C431.877 452.346 440.352 453.332 448.26 451.087ZM415.638 431.224L420.7 431.194C421.737 431.223 421.834 431.281 421.941 431.378C422.716 432.008 423.638 432.89 424.511 433.743C424.598 434.092 425.238 434.509 425.432 434.79C425.626 435.072 424.657 437.457 424.269 438.543C423.776 439.407 423.151 440.189 422.417 440.861C419.379 438.274 417.046 434.958 415.638 431.224ZM447.047 446.239L447.231 445.492C447.296 445.611 447.329 445.744 447.328 445.88C447.27 445.647 447.764 445.153 448.055 444.668L448.937 443.252C449.33 442.566 449.471 441.765 449.336 440.986C449.201 440.207 448.8 439.5 448.2 438.986L448.665 438.869C449.273 438.698 449.835 438.392 450.308 437.974C450.782 437.556 451.155 437.037 451.399 436.454C451.68 435.756 451.802 435.004 451.757 434.253C451.712 433.502 451.5 432.77 451.137 432.11L451.069 431.839C451.609 431.597 452.131 431.314 452.63 430.995L453.483 430.452L455.762 429.016C456.447 428.615 457.022 428.049 457.435 427.371C457.848 426.692 458.085 425.921 458.127 425.128C458.153 424.464 458.013 423.805 457.72 423.209C457.427 422.613 456.99 422.1 456.449 421.715C454.475 420.426 452.312 419.452 450.039 418.826C447.762 418.018 445.338 417.711 442.931 417.926L436.416 419.556C435.64 419.789 434.819 419.823 434.027 419.654C433.235 419.484 432.499 419.117 431.887 418.587C431.622 418.422 431.4 418.196 431.24 417.928C431.079 417.66 430.985 417.357 430.966 417.045C430.925 416.532 431.008 416.016 431.208 415.542C432.746 413.482 433.499 410.941 433.331 408.376C433.376 406.427 433.55 404.484 433.853 402.558C434.018 401.239 434.154 399.969 434.231 398.961C435.508 398.54 436.842 398.318 438.187 398.301C438.599 401.26 440.009 403.989 442.183 406.038C443.873 407.253 445.087 409.018 445.616 411.031C445.845 413.009 446.765 414.842 448.215 416.207C449.666 417.571 451.551 418.379 453.539 418.486C458.557 420.098 463.237 422.615 467.348 425.912C466.205 430.86 463.696 435.388 460.107 438.981C456.518 442.574 451.994 445.089 447.047 446.239ZM467.163 415.449C467.543 416.961 467.764 418.508 467.823 420.065C463.685 417.051 459.022 414.836 454.072 413.532C451.532 413.26 450.959 412.456 450.309 409.857C449.49 406.617 447.522 403.785 444.771 401.887C443.779 400.348 443.145 398.605 442.919 396.787C448.439 396.839 453.793 398.689 458.168 402.056C462.542 405.424 465.7 410.126 467.163 415.449ZM428.995 399.941C429.141 400.523 428.84 401.298 428.763 401.977C428.379 404.203 428.185 406.458 428.182 408.716C428.207 410.108 427.763 411.467 426.922 412.576C425.894 414.248 425.554 416.253 425.972 418.171C426.148 419.085 426.51 419.954 427.036 420.723C427.561 421.492 428.239 422.144 429.027 422.64C430.247 423.551 431.661 424.166 433.159 424.435C434.657 424.704 436.198 424.62 437.658 424.19L443.824 422.648C446.916 422.713 449.947 423.524 452.658 425.012L450.99 426.089L450.021 426.661C449.612 426.986 449.129 427.206 448.615 427.301L448.12 426.807C447.694 426.335 447.107 426.039 446.474 425.976C445.842 425.914 445.208 426.089 444.698 426.468C444.199 426.872 443.868 427.447 443.768 428.08C443.668 428.714 443.806 429.362 444.155 429.901L444.33 430.599C445.047 431.656 445.959 433.158 446.541 434.167C445.524 434.376 444.585 434.86 443.824 435.566C443.063 436.273 442.511 437.174 442.227 438.172C442.148 438.882 442.262 439.6 442.555 440.252C442.849 440.903 443.311 441.464 443.895 441.876C443.541 442.399 443.223 442.947 442.945 443.515C442.696 444.03 442.56 444.592 442.546 445.164C442.533 445.736 442.643 446.305 442.868 446.831C437.247 447.389 431.59 446.216 426.655 443.469C427.649 442.458 428.457 441.279 429.04 439.987C429.628 438.406 430.104 436.786 430.464 435.139C430.551 434.156 430.388 433.168 429.989 432.266C429.59 431.364 428.97 430.578 428.185 429.981C427.186 428.953 426.119 427.983 425.179 427.188C423.913 426.216 422.326 425.759 420.738 425.909C419.826 425.89 416.646 426.026 414.406 426.133C413.798 420.791 414.878 415.392 417.495 410.694C420.111 405.997 424.133 402.237 428.995 399.941Z" fill="#C0C0C0"/>
<ellipse cx="384.334" cy="18.332" rx="17" ry="16" transform="rotate(-102.927 384.334 18.332)" fill="#D9D9D9"/>
<path d="M391.545 5.58159C390.222 6.37428 389.476 7.95641 389.841 9.54672L390.251 11.3336L384.89 12.564C384.416 12.6727 384.005 12.9653 383.747 13.3773C383.489 13.7894 383.405 14.2871 383.514 14.761L385.974 25.4822L382.401 26.3024L381.58 22.7287C381.472 22.2548 381.179 21.8435 380.767 21.5853C380.355 21.3271 379.857 21.2432 379.383 21.352L375.81 22.1722L374.989 18.5985C374.772 17.6507 374.187 16.8281 373.363 16.3117C372.539 15.7953 371.543 15.6274 370.595 15.845L369.863 16.0131C370.234 13.6774 371.166 11.4663 372.578 9.56928C373.99 7.67224 375.842 6.14571 377.973 5.12035C380.104 4.09499 382.452 3.60135 384.816 3.68168C387.18 3.76201 389.489 4.41391 391.545 5.58159ZM398.914 16.8693C399.658 24.1284 394.905 30.9564 387.615 32.6297C386.507 32.884 385.402 32.9871 384.33 32.9886L390.925 22.4649L392.712 22.0548C393.66 21.8373 394.482 21.2521 394.998 20.4281C395.515 19.6041 395.683 18.6086 395.465 17.6608M366.465 22.436C367.004 24.7825 367.999 27 369.395 28.9618C370.79 30.9237 372.559 32.5914 374.599 33.8698C378.719 36.4517 383.696 37.2911 388.435 36.2034C393.174 35.1157 397.287 32.1899 399.869 28.0698C401.147 26.0297 402.011 23.7577 402.412 21.3837C402.812 19.0097 402.741 16.58 402.203 14.2334C401.115 9.49437 398.189 5.38149 394.069 2.79959C389.949 0.217696 384.972 -0.621721 380.233 0.466002C377.886 1.00459 375.669 2.00009 373.707 3.39566C371.745 4.79124 370.077 6.55956 368.799 8.59966C367.52 10.6398 366.656 12.9117 366.256 15.2857C365.855 17.6598 365.927 20.0894 366.465 22.436Z" fill="#CDCDCD"/>
<circle cx="27.4999" cy="180.501" r="21.5" transform="rotate(164.711 27.4999 180.501)" fill="#D9D9D9"/>
<path d="M6.75883 186.163C3.63324 174.713 10.3764 162.897 21.8235 159.763L6.75883 186.163ZM33.1691 201.24C24.7476 203.542 16.1262 200.504 10.9072 194.181L30.8372 159.256C32.1524 159.463 33.4454 159.793 34.6996 160.24L22.3318 181.913L27.4999 180.5L38.1559 161.827C42.9348 164.554 46.6735 169.104 48.2389 174.831C51.37 186.285 44.6229 198.109 33.1691 201.24Z" fill="#CDCDCD"/>
<ellipse cx="296.747" cy="413.783" rx="13.6676" ry="13.7474" transform="rotate(21.3722 296.747 413.783)" fill="#D9D9D9"/>
<path d="M313.804 427.962C314.02 427.644 314.103 427.254 314.033 426.875C313.963 426.497 313.746 426.162 313.43 425.943L279.511 402.61C279.193 402.393 278.803 402.311 278.425 402.381C278.046 402.451 277.711 402.668 277.492 402.984C277.276 403.302 277.194 403.692 277.264 404.07C277.334 404.448 277.55 404.783 277.866 405.002L283.795 409.043C283.465 409.951 283.233 410.882 283.099 411.837L296.497 421.056C296.725 421.224 296.878 421.474 296.924 421.753C296.971 422.032 296.907 422.319 296.747 422.552C296.586 422.785 296.342 422.947 296.065 423.003C295.788 423.059 295.5 423.005 295.261 422.853L282.967 414.483C282.996 415.092 283.069 415.696 283.184 416.294C285.137 426.763 297.682 431.193 305.765 424.268L305.829 424.214L311.779 428.294C312.092 428.518 312.48 428.608 312.86 428.546C313.239 428.484 313.578 428.273 313.804 427.962ZM299.009 404.017C299.13 404.097 299.234 404.2 299.314 404.321C299.395 404.441 299.451 404.577 299.479 404.719C299.507 404.861 299.506 405.008 299.476 405.15C299.447 405.292 299.389 405.427 299.307 405.546C299.225 405.666 299.12 405.768 298.998 405.846C298.876 405.925 298.739 405.978 298.597 406.003C298.454 406.028 298.307 406.025 298.166 405.992C298.025 405.96 297.891 405.9 297.773 405.816L290.989 401.149C289.423 401.896 288.013 402.937 286.836 404.213L309.309 419.674C313.799 410.032 306.176 399.139 295.587 400.065C295.159 400.102 294.735 400.16 294.313 400.237L293.641 400.361L299.009 404.017Z" fill="#CDCDCD"/>
<circle cx="178.945" cy="116.5" r="21" transform="rotate(60.8982 178.945 116.5)" fill="#D9D9D9"/>
<path d="M164.209 101.179C170.29 95.3065 179.549 93.3927 187.704 97.0681C191.243 98.6623 194.277 101.199 196.474 104.403C198.672 107.607 199.951 111.356 200.171 115.242C198.219 114.395 196.11 113.821 194.127 113.408C188.368 112.216 182.076 112.113 179.428 112.069L178.711 112.058C176.042 112.014 170.476 111.916 165.581 110.9C162.988 110.363 161.012 109.65 159.807 108.847C159.625 108.727 159.451 108.596 159.285 108.454C159.883 106.998 160.638 105.611 161.536 104.317C160.64 104.272 159.671 104.362 158.779 104.628C157.058 105.138 156.148 106.092 156.086 107.427C156.022 108.835 156.708 109.997 158.286 111.045C159.914 112.13 162.288 112.929 165.002 113.494C170.201 114.572 176.031 114.669 178.666 114.713L179.275 114.724C181.896 114.767 188.042 114.868 193.6 116.025C196.483 116.623 199.377 117.538 201.564 118.993C203.804 120.481 205.484 122.681 205.343 125.729C205.184 129.183 202.583 131.031 200.067 131.766C198.001 132.37 195.61 132.367 193.689 131.817C187.607 137.695 178.346 139.61 170.188 135.933C166.648 134.339 163.615 131.803 161.417 128.599C159.219 125.395 157.94 121.647 157.72 117.761C159.673 118.606 161.782 119.183 163.766 119.594C169.525 120.786 175.818 120.889 178.465 120.933L179.183 120.945C181.851 120.988 187.417 121.086 192.312 122.102C194.903 122.639 196.881 123.352 198.086 124.155C198.303 124.3 198.476 124.431 198.606 124.547C198.513 124.775 198.415 125.002 198.312 125.229C197.758 126.454 197.109 127.6 196.368 128.664C197.249 128.705 198.202 128.614 199.086 128.356C200.835 127.847 201.744 126.895 201.805 125.576C201.871 124.167 201.182 123.006 199.601 121.952C197.969 120.868 195.592 120.067 192.873 119.5C187.652 118.414 181.795 118.317 179.172 118.274L178.563 118.263C175.934 118.22 169.813 118.118 164.276 116.969C161.399 116.374 158.506 115.46 156.323 114.006C154.086 112.519 152.408 110.319 152.548 107.273C152.706 103.833 155.269 101.968 157.78 101.222C159.859 100.606 162.269 100.611 164.209 101.179Z" fill="#C0C0C0"/>
<circle cx="408.5" cy="226.499" r="25.4999" transform="rotate(109.291 408.5 226.499)" fill="#D9D9D9"/>
<path d="M391.325 245.36C391.291 244.705 391.25 244.05 391.202 243.396L391.199 243.367C391.104 242.018 390.996 240.473 390.97 238.819C390.91 235.486 391.169 231.613 392.541 227.692C394.068 223.329 396.409 220.393 398.633 218.161C399.491 217.3 400.354 216.524 401.112 215.841L401.702 215.313C402.623 214.473 403.306 213.81 403.783 213.172C405.63 210.664 407.191 207.957 408.437 205.102C408.936 203.971 409.383 202.817 409.777 201.645L409.834 201.458L409.852 201.407L409.961 201.034C404.699 200.735 399.474 202.073 395.004 204.863C390.534 207.654 387.037 211.76 384.995 216.618C382.952 221.476 382.464 226.847 383.598 231.994C384.732 237.14 387.431 241.809 391.325 245.36ZM427.482 209.469L426.505 209.929L426.492 209.933L426.433 209.964L426.166 210.102C425.926 210.232 425.564 210.432 425.116 210.708C424.221 211.259 422.978 212.107 421.623 213.278C418.902 215.619 415.779 219.2 414.026 224.208C412.868 227.515 412.93 230.379 413.3 232.919C413.449 233.93 413.639 234.861 413.828 235.786L413.989 236.585C414.217 237.724 414.433 238.929 414.427 240.073C414.412 243.033 414.054 245.982 413.359 248.86C413.126 249.815 412.843 250.758 412.511 251.684C417.055 250.959 421.318 249.018 424.848 246.067C428.379 243.117 431.045 239.266 432.564 234.923C434.073 230.613 434.398 225.978 433.504 221.501C432.61 217.023 430.53 212.868 427.482 209.469Z" fill="#CDCDCD"/>
<path opacity="0.5" d="M395.164 248.24C396.684 249.178 398.32 249.953 400.072 250.566C402.695 251.487 405.45 251.972 408.23 252.003L408.766 250.767L408.775 250.741L408.825 250.62C409.147 249.745 409.421 248.852 409.645 247.946C410.269 245.36 410.59 242.709 410.599 240.048C410.604 239.34 410.467 238.481 410.239 237.334L410.092 236.612C409.898 235.675 409.679 234.604 409.516 233.472C409.086 230.539 408.992 227.012 410.414 222.947C412.451 217.127 416.06 213.017 419.125 210.38C420.372 209.298 421.705 208.319 423.111 207.453C423.569 207.168 424.037 206.899 424.514 206.647C421.386 204.137 417.716 202.391 413.795 201.55L413.518 202.493L413.509 202.52L413.489 202.585C413.376 202.951 413.255 203.314 413.124 203.674C412.864 204.401 412.473 205.426 411.936 206.643C410.87 209.071 409.208 212.299 406.846 215.46C406.127 216.424 405.191 217.309 404.272 218.144L403.627 218.726C402.879 219.399 402.118 220.081 401.34 220.862C399.383 222.825 397.437 225.289 396.153 228.957C394.988 232.285 394.739 235.653 394.794 238.752C394.819 240.304 394.92 241.766 395.018 243.129L395.02 243.178C395.111 244.494 395.201 245.773 395.183 246.864L395.164 248.24Z" fill="#CDCDCD"/>
<circle cx="93.0002" cy="486.469" r="35" transform="rotate(-90.7714 93.0002 486.469)" fill="#D9D9D9"/>
<path fill-rule="evenodd" clip-rule="evenodd" d="M68.8389 511.787C65.4663 508.577 62.7702 504.725 60.9093 500.458C59.0484 496.19 58.0604 491.594 58.0034 486.938C57.7923 471.264 67.9134 457.87 82.0515 453.217L82.3598 476.11C82.3723 477.038 82.753 477.923 83.4181 478.571C84.0833 479.218 84.9784 479.575 85.9066 479.562C86.8347 479.55 87.7199 479.169 88.3674 478.504C89.0149 477.839 89.3716 476.944 89.3591 476.016L89.0317 451.695C90.185 451.563 91.3507 451.488 92.529 451.473C111.858 451.212 127.737 466.668 127.997 485.996C128.065 490.651 127.201 495.273 125.456 499.589C123.711 503.905 121.119 507.828 117.834 511.127L117.545 489.637C117.533 488.709 117.152 487.823 116.487 487.176C115.822 486.529 114.926 486.172 113.998 486.184C113.07 486.197 112.185 486.578 111.537 487.243C110.89 487.908 110.533 488.803 110.546 489.731L110.907 516.544C108.71 517.853 106.377 518.917 103.949 519.718L103.452 482.826C103.44 481.898 103.059 481.013 102.394 480.366C101.729 479.718 100.833 479.361 99.9053 479.374C98.9771 479.386 98.0919 479.767 97.4444 480.432C96.797 481.097 96.4402 481.992 96.4527 482.921L96.9687 521.24C89.679 522.082 82.3095 520.602 75.9099 517.011L75.5018 486.703C75.4893 485.775 75.1086 484.889 74.4434 484.242C73.7783 483.595 72.8831 483.238 71.955 483.25C71.0268 483.263 70.1416 483.644 69.4941 484.309C68.8466 484.974 68.4899 485.869 68.5024 486.797L68.8389 511.787ZM82.5954 493.607C82.6079 494.536 82.9886 495.421 83.6537 496.068C84.3189 496.716 85.214 497.072 86.1422 497.06C87.0703 497.047 87.9555 496.667 88.603 496.001C89.2505 495.336 89.6072 494.441 89.5947 493.513L89.5005 486.514C89.488 485.586 89.1073 484.701 88.4421 484.054C87.777 483.406 86.8819 483.049 85.9537 483.062C85.0255 483.074 84.1403 483.455 83.4928 484.12C82.8454 484.785 82.4886 485.68 82.5011 486.608L82.5954 493.607ZM88.6808 501.548C89.3458 502.195 89.7263 503.08 89.7388 504.008C89.7513 504.936 89.3947 505.831 88.7475 506.496C88.1001 507.161 87.2149 507.546 86.2865 507.559C85.8269 507.565 85.3704 507.481 84.9433 507.311C84.5162 507.141 84.1268 506.888 83.7972 506.568C83.4677 506.247 83.2045 505.865 83.0228 505.443C82.841 505.021 82.7441 504.567 82.7378 504.107C82.725 503.179 83.0815 502.283 83.7288 501.618C84.0495 501.288 84.432 501.025 84.8545 500.843C85.2769 500.661 85.7311 500.564 86.191 500.558C86.6509 500.552 87.1076 500.636 87.5348 500.807C87.962 500.977 88.3515 501.23 88.6809 501.551L88.6808 501.548ZM102.322 474.812C102.652 474.485 102.913 474.095 103.091 473.666C103.269 473.236 103.359 472.776 103.357 472.311C103.355 471.847 103.26 471.387 103.078 470.959C102.896 470.532 102.631 470.144 102.298 469.82C101.965 469.496 101.571 469.241 101.139 469.071C100.706 468.901 100.244 468.819 99.7794 468.829C99.3148 468.839 98.8568 468.942 98.4323 469.131C98.0078 469.32 97.6253 469.592 97.3069 469.931C96.6591 470.596 96.2985 471.491 96.3106 472.419C96.3228 473.348 96.7033 474.233 97.3683 474.881C98.0334 475.529 98.9286 475.886 99.8569 475.873C100.785 475.861 101.671 475.481 102.319 474.816L102.322 474.812Z" fill="#CDCDCD"/>
</svg>
