<svg width="48" height="40" viewBox="0 0 48 40" fill="none" xmlns="http://www.w3.org/2000/svg">
<path fill-rule="evenodd" clip-rule="evenodd" d="M11.4022 0.00390625H11.3581C10.5261 0.0253529 9.71096 0.230671 8.97815 0.603387C8.24534 0.976103 7.61525 1.50584 7.13842 2.15009L0.975099 10.2127L0.964923 10.2255C0.29173 11.1245 -0.0459371 12.2093 0.00502768 13.3093C0.0559925 14.4093 0.492698 15.4621 1.24646 16.3021L19.7364 38.017C20.2123 38.5922 20.8207 39.0574 21.5154 39.3774C22.2101 39.6973 22.9729 39.8636 23.7458 39.8636C24.5187 39.8636 25.2815 39.6973 25.9762 39.3774C26.6709 39.0574 27.2793 38.5922 27.7552 38.017L46.2418 16.3021C46.996 15.4624 47.4333 14.4098 47.4849 13.3098C47.5365 12.2098 47.1994 11.1248 46.5267 10.2255L46.5165 10.2127L40.3532 2.1565C39.8764 1.51225 39.2463 0.98251 38.5135 0.609794C37.7806 0.237078 36.9655 0.0317595 36.1335 0.0103129V0.00710947H11.4056L11.4022 0.00390625Z" fill="#A5E7FF"/>
<path fill-rule="evenodd" clip-rule="evenodd" d="M0.182584 11.82H11.2169L17.0579 0.00640644H21.7355L15.8911 11.8264H31.664L25.8467 0H30.5175L36.3382 11.82H47.3047C47.4934 12.4956 47.529 13.2011 47.4091 13.8905C47.2893 14.58 47.0168 15.2378 46.6093 15.8209H36.4298L29.9985 35.3704L27.7496 38.0131C27.3104 38.544 26.7579 38.9818 26.128 39.298C25.498 39.6142 24.8047 39.8018 24.093 39.8486L31.9897 15.8241H15.5688L23.5028 39.855C22.7719 39.8217 22.0571 39.6399 21.4074 39.3221C20.7576 39.0042 20.1881 38.5577 19.7376 38.0131L17.6448 35.5466L11.1321 15.8241H0.87795C0.470014 15.2406 0.197198 14.5822 0.0773666 13.8922C-0.042465 13.2022 -0.00661001 12.4961 0.182584 11.82Z" fill="#77B8FF"/>
</svg>
