<svg width="33" height="38" viewBox="0 0 33 38" fill="none" xmlns="http://www.w3.org/2000/svg">
<path fill-rule="evenodd" clip-rule="evenodd" d="M12.531 0C13.1121 0 13.6693 0.219253 14.0801 0.609526C14.491 0.999799 14.7218 1.52912 14.7218 2.08105V3.89295C14.7218 4.44488 14.491 4.97421 14.0801 5.36448C13.6693 5.75475 13.1121 5.97401 12.531 5.97401C11.95 5.97401 11.3928 5.75475 10.9819 5.36448C10.5711 4.97421 10.3403 4.44488 10.3403 3.89295V2.08105C10.3403 1.52912 10.5711 0.999799 10.9819 0.609526C11.3928 0.219253 11.95 0 12.531 0ZM25.0562 19.0014C25.0562 20.5642 24.7322 22.1118 24.1026 23.5556C23.473 24.9995 22.5502 26.3115 21.3868 27.4166C20.2235 28.5216 18.8424 29.3983 17.3224 29.9963C15.8024 30.5944 14.1733 30.9022 12.5281 30.9022C10.8829 30.9022 9.25379 30.5944 7.73381 29.9963C6.21383 29.3983 4.83274 28.5216 3.6694 27.4166C2.50606 26.3115 1.58324 24.9995 0.953646 23.5556C0.324049 22.1118 -2.45156e-08 20.5642 0 19.0014C4.95115e-08 15.8451 1.31992 12.8181 3.6694 10.5862C6.01888 8.35438 9.20545 7.10055 12.5281 7.10055C15.8508 7.10055 19.0373 8.35438 21.3868 10.5862C23.7363 12.8181 25.0562 15.8451 25.0562 19.0014ZM14.7218 34.107C14.7218 33.5551 14.491 33.0258 14.0801 32.6355C13.6693 32.2453 13.1121 32.026 12.531 32.026C11.95 32.026 11.3928 32.2453 10.9819 32.6355C10.5711 33.0258 10.3403 33.5551 10.3403 34.107V35.9189C10.3403 36.4709 10.5711 37.0002 10.9819 37.3905C11.3928 37.7808 11.95 38 12.531 38C13.1121 38 13.6693 37.7808 14.0801 37.3905C14.491 37.0002 14.7218 36.4709 14.7218 35.9189V34.107ZM28.4358 16.9203C27.8548 16.9203 27.2976 17.1396 26.8867 17.5299C26.4759 17.9201 26.2451 18.4495 26.2451 19.0014C26.2451 19.5533 26.4759 20.0826 26.8867 20.4729C27.2976 20.8632 27.8548 21.0824 28.4358 21.0824H30.3403C30.9213 21.0824 31.4785 20.8632 31.8894 20.4729C32.3002 20.0826 32.531 19.5533 32.531 19.0014C32.531 18.4495 32.3002 17.9201 31.8894 17.5299C31.4785 17.1396 30.9213 16.9203 30.3403 16.9203H28.4358ZM26.8001 5.44403C27.2103 5.83423 27.4407 6.36316 27.4407 6.91464C27.4407 7.46612 27.2103 7.99505 26.8001 8.38525L25.5323 9.59226C25.3304 9.79111 25.0887 9.94976 24.8215 10.0589C24.5542 10.1681 24.2668 10.2257 23.9759 10.2282C23.685 10.2307 23.3965 10.1782 23.1273 10.0737C22.858 9.96916 22.6133 9.81475 22.4075 9.61944C22.2017 9.42414 22.0389 9.19186 21.9287 8.93616C21.8184 8.68046 21.7628 8.40645 21.7652 8.13013C21.7676 7.85381 21.8279 7.58071 21.9426 7.32676C22.0573 7.07281 22.224 6.84311 22.4332 6.65104L23.7009 5.44403C24.1117 5.05432 24.6685 4.83542 25.249 4.83542C25.8296 4.83542 26.3893 5.05432 26.8001 5.44403ZM25.5323 28.4105C25.3304 28.2117 25.0887 28.053 24.8215 27.9438C24.5542 27.8347 24.2668 27.7771 23.9759 27.7746C23.685 27.7721 23.3965 27.8246 23.1273 27.9291C22.858 28.0336 22.6133 28.188 22.4075 28.3833C22.2017 28.5786 22.0389 28.8109 21.9287 29.0666C21.8184 29.3223 21.7628 29.5963 21.7652 29.8726C21.7676 30.149 21.8279 30.4221 21.9426 30.676C22.0573 30.93 22.224 31.1597 22.4332 31.3517L23.7009 32.556C24.1162 32.9236 24.6655 33.1237 25.233 33.1142C25.8006 33.1047 26.3421 32.8863 26.7435 32.505C27.1448 32.1237 27.3748 31.6093 27.3848 31.0702C27.3948 30.531 27.1841 30.0093 26.7971 29.6148L25.5323 28.4105Z" fill="#FFD057"/>
<path fill-rule="evenodd" clip-rule="evenodd" d="M14.36 11.535C14.36 11.075 14.1677 10.6339 13.8253 10.3087C13.4829 9.98349 13.0186 9.80078 12.5344 9.80078C12.0502 9.80078 11.5859 9.98349 11.2435 10.3087C10.9011 10.6339 10.7088 11.075 10.7088 11.535V16.4352C10.7088 16.8951 10.9011 17.3362 11.2435 17.6614C11.5859 17.9867 12.0502 18.1694 12.5344 18.1694C13.0186 18.1694 13.4829 17.9867 13.8253 17.6614C14.1677 17.3362 14.36 16.8951 14.36 16.4352V11.535ZM8.16753 15.8775C8.31668 15.6958 8.42624 15.4878 8.48982 15.2655C8.55341 15.0432 8.56974 14.8111 8.53786 14.5828C8.50598 14.3545 8.42653 14.1344 8.30415 13.9356C8.18177 13.7367 8.01892 13.563 7.82509 13.4246C7.63127 13.2862 7.41035 13.1858 7.17525 13.1294C6.94015 13.073 6.69558 13.0616 6.4558 13.096C6.21603 13.1303 5.98586 13.2097 5.77874 13.3295C5.57162 13.4493 5.39169 13.6071 5.24947 13.7936C4.23561 15.0778 3.61821 16.6047 3.46646 18.2034C3.31471 19.8021 3.6346 21.4093 4.39029 22.845C5.14597 24.2807 6.3076 25.4882 7.74501 26.332C9.18241 27.1759 10.8388 27.6229 12.5286 27.6229C14.2183 27.6229 15.8747 27.1759 17.3121 26.332C18.7495 25.4882 19.9112 24.2807 20.6668 22.845C21.4225 21.4093 21.7424 19.8021 21.5907 18.2034C21.4389 16.6047 20.8215 15.0778 19.8077 13.7936C19.5172 13.4257 19.0847 13.1824 18.6054 13.1174C18.126 13.0523 17.6392 13.1708 17.2518 13.4468C16.8645 13.7227 16.6084 14.1336 16.5399 14.5889C16.4714 15.0442 16.5962 15.5067 16.8867 15.8747C17.4932 16.6436 17.8624 17.5578 17.9529 18.5147C18.0434 19.4717 17.8516 20.4338 17.3991 21.2931C16.9465 22.1524 16.2511 22.875 15.3906 23.3801C14.5301 23.8851 13.5386 24.1526 12.5271 24.1526C11.5156 24.1526 10.5241 23.8851 9.66363 23.3801C8.80315 22.875 8.10769 22.1524 7.65513 21.2931C7.20258 20.4338 7.01081 19.4717 7.10131 18.5147C7.19181 17.5578 7.561 16.6464 8.16753 15.8775Z" fill="#E0A000"/>
</svg>
