<svg width="57" height="52" viewBox="0 0 57 52" fill="none" xmlns="http://www.w3.org/2000/svg">
<path fill-rule="evenodd" clip-rule="evenodd" d="M28.0617 0C28.8769 0 29.6588 0.298561 30.2352 0.830002C30.8117 1.36144 31.1355 2.08223 31.1355 2.8338V5.3011C31.1355 6.05267 30.8117 6.77346 30.2352 7.3049C29.6588 7.83635 28.8769 8.13491 28.0617 8.13491C27.2465 8.13491 26.4646 7.83635 25.8882 7.3049C25.3118 6.77346 24.9879 6.05267 24.9879 5.3011V2.8338C24.9879 2.08223 25.3118 1.36144 25.8882 0.830002C26.4646 0.298561 27.2465 0 28.0617 0ZM45.6356 25.8745C45.6356 28.0027 45.1809 30.11 44.2976 32.0761C43.4142 34.0423 42.1194 35.8288 40.4871 37.3336C38.8549 38.8384 36.9171 40.0321 34.7844 40.8465C32.6517 41.6609 30.366 42.0801 28.0576 42.0801C25.7492 42.0801 23.4635 41.6609 21.3308 40.8465C19.1981 40.0321 17.2603 38.8384 15.6281 37.3336C13.9958 35.8288 12.701 34.0423 11.8176 32.0761C10.9343 30.11 10.4796 28.0027 10.4796 25.8745C10.4796 21.5765 12.3316 17.4546 15.6281 14.4154C18.9246 11.3763 23.3956 9.66894 28.0576 9.66894C32.7196 9.66894 37.1906 11.3763 40.4871 14.4154C43.7836 17.4546 45.6356 21.5765 45.6356 25.8745ZM31.1355 46.4442C31.1355 45.6926 30.8117 44.9718 30.2352 44.4404C29.6588 43.9089 28.8769 43.6103 28.0617 43.6103C27.2465 43.6103 26.4646 43.9089 25.8882 44.4404C25.3118 44.9718 24.9879 45.6926 24.9879 46.4442V48.9114C24.9879 49.663 25.3118 50.3838 25.8882 50.9153C26.4646 51.4467 27.2465 51.7453 28.0617 51.7453C28.8769 51.7453 29.6588 51.4467 30.2352 50.9153C30.8117 50.3838 31.1355 49.663 31.1355 48.9114V46.4442ZM0 25.8745C0 25.1229 0.323845 24.4022 0.900294 23.8707C1.47674 23.3393 2.25857 23.0407 3.0738 23.0407H5.74595C6.56117 23.0407 7.343 23.3393 7.91945 23.8707C8.4959 24.4022 8.81974 25.1229 8.81974 25.8745C8.81974 26.6261 8.4959 27.3469 7.91945 27.8783C7.343 28.4098 6.56117 28.7083 5.74595 28.7083H3.0738C2.25857 28.7083 1.47674 28.4098 0.900294 27.8783C0.323845 27.3469 0 26.6261 0 25.8745ZM50.3775 23.0407C49.5622 23.0407 48.7804 23.3393 48.2039 23.8707C47.6275 24.4022 47.3037 25.1229 47.3037 25.8745C47.3037 26.6261 47.6275 27.3469 48.2039 27.8783C48.7804 28.4098 49.5622 28.7083 50.3775 28.7083H53.0496C53.8648 28.7083 54.6467 28.4098 55.2231 27.8783C55.7996 27.3469 56.1234 26.6261 56.1234 25.8745C56.1234 25.1229 55.7996 24.4022 55.2231 23.8707C54.6467 23.3393 53.8648 23.0407 53.0496 23.0407H50.3775ZM48.0823 7.41323C48.658 7.94457 48.9813 8.66483 48.9813 9.41579C48.9813 10.1667 48.658 10.887 48.0823 11.4183L46.3036 13.0619C46.0202 13.3327 45.6812 13.5488 45.3062 13.6974C44.9313 13.8461 44.528 13.9245 44.1199 13.9279C43.7117 13.9313 43.3069 13.8598 42.9291 13.7175C42.5513 13.5752 42.208 13.3649 41.9192 13.099C41.6305 12.833 41.4021 12.5167 41.2474 12.1685C41.0926 11.8203 41.0147 11.4472 41.018 11.0709C41.0214 10.6947 41.106 10.3228 41.2669 9.97698C41.4278 9.63117 41.6618 9.31837 41.9552 9.05684L43.734 7.41323C44.3103 6.88255 45.0915 6.58448 45.9061 6.58448C46.7207 6.58448 47.506 6.88255 48.0823 7.41323ZM14.1599 42.6884C14.4619 42.429 14.7042 42.1161 14.8722 41.7685C15.0402 41.4209 15.1305 41.0457 15.1378 40.6652C15.1451 40.2847 15.0692 39.9067 14.9146 39.5539C14.76 39.201 14.5299 38.8805 14.238 38.6114C13.9461 38.3423 13.5984 38.1301 13.2157 37.9876C12.8329 37.8451 12.423 37.7751 12.0102 37.7818C11.5975 37.7885 11.1905 37.8718 10.8135 38.0267C10.4364 38.1816 10.0971 38.4049 9.81565 38.6833L8.03695 40.3194C7.47675 40.8536 7.16656 41.5693 7.17318 42.3123C7.1798 43.0553 7.50271 43.7662 8.07235 44.2919C8.64199 44.8175 9.41279 45.1159 10.2187 45.1227C11.0247 45.1295 11.8013 44.8442 12.3812 44.3282L14.1599 42.6884ZM8.04105 7.41323C8.61739 6.88255 9.39864 6.58448 10.2132 6.58448C11.0278 6.58448 11.809 6.88255 12.3853 7.41323L14.164 9.05306C14.707 9.59025 15.0026 10.3008 14.9885 11.0349C14.9745 11.7691 14.6519 12.4695 14.0887 12.9887C13.5256 13.5079 12.7658 13.8053 11.9694 13.8183C11.1731 13.8312 10.4024 13.5587 9.81975 13.0582L8.04105 11.4221C7.46543 10.8908 7.14211 10.1705 7.14211 9.41956C7.14211 8.6686 7.46543 7.94835 8.04105 7.41701M46.3036 38.6871C46.0202 38.4163 45.6812 38.2003 45.3062 38.0516C44.9313 37.9029 44.528 37.8246 44.1199 37.8211C43.7117 37.8177 43.3069 37.8892 42.9291 38.0315C42.5513 38.1739 42.208 38.3841 41.9192 38.6501C41.6305 38.916 41.4021 39.2323 41.2474 39.5805C41.0926 39.9287 41.0147 40.3018 41.018 40.6781C41.0214 41.0544 41.106 41.4263 41.2669 41.7721C41.4278 42.1179 41.6618 42.4307 41.9552 42.6922L43.734 44.332C44.3166 44.8326 45.0873 45.1051 45.8837 45.0921C46.68 45.0792 47.4398 44.7818 48.0029 44.2626C48.5661 43.7434 48.8887 43.0429 48.9027 42.3088C48.9168 41.5746 48.6212 40.8641 48.0783 40.3269L46.3036 38.6871Z" fill="#FFD057"/>
<path fill-rule="evenodd" clip-rule="evenodd" d="M30.6292 15.7072C30.6292 15.0809 30.3593 14.4802 29.8789 14.0374C29.3985 13.5945 28.747 13.3457 28.0677 13.3457C27.3883 13.3457 26.7368 13.5945 26.2564 14.0374C25.776 14.4802 25.5062 15.0809 25.5062 15.7072V22.3799C25.5062 23.0062 25.776 23.6068 26.2564 24.0497C26.7368 24.4926 27.3883 24.7414 28.0677 24.7414C28.747 24.7414 29.3985 24.4926 29.8789 24.0497C30.3593 23.6068 30.6292 23.0062 30.6292 22.3799V15.7072ZM21.9406 21.6204C22.1498 21.3731 22.3036 21.0898 22.3928 20.7871C22.482 20.4844 22.5049 20.1684 22.4602 19.8575C22.4154 19.5465 22.304 19.2469 22.1323 18.9761C21.9605 18.7053 21.732 18.4688 21.4601 18.2803C21.1881 18.0918 20.8782 17.9552 20.5483 17.8784C20.2184 17.8015 19.8753 17.786 19.5389 17.8328C19.2024 17.8796 18.8795 17.9877 18.5889 18.1508C18.2983 18.3139 18.0458 18.5288 17.8463 18.7828C16.4237 20.5315 15.5575 22.6107 15.3446 24.7877C15.1316 26.9646 15.5805 29.1532 16.6408 31.1082C17.7011 33.0633 19.3309 34.7075 21.3477 35.8566C23.3645 37.0057 25.6886 37.6144 28.0595 37.6144C30.4304 37.6144 32.7544 37.0057 34.7712 35.8566C36.788 34.7075 38.4179 33.0633 39.4782 31.1082C40.5385 29.1532 40.9873 26.9646 40.7744 24.7877C40.5615 22.6107 39.6952 20.5315 38.2727 18.7828C37.8651 18.2818 37.2582 17.9505 36.5857 17.862C35.9132 17.7734 35.2301 17.9347 34.6866 18.3105C34.1431 18.6863 33.7838 19.2457 33.6877 19.8658C33.5916 20.4858 33.7667 21.1156 34.1743 21.6166C35.0253 22.6637 35.5433 23.9085 35.6703 25.2117C35.7972 26.5148 35.5282 27.8248 34.8932 28.9949C34.2582 30.1651 33.2824 31.1491 32.0751 31.8369C30.8678 32.5246 29.4766 32.8889 28.0574 32.8889C26.6382 32.8889 25.247 32.5246 24.0397 31.8369C22.8324 31.1491 21.8566 30.1651 21.2216 28.9949C20.5867 27.8248 20.3176 26.5148 20.4446 25.2117C20.5716 23.9085 21.0896 22.6675 21.9406 21.6204Z" fill="#E0A000"/>
</svg>
